<svg width="14" height="15" viewBox="0 0 14 15" fill="none" xmlns="http://www.w3.org/2000/svg">
<path fill-rule="evenodd" clip-rule="evenodd" d="M13.9951 1.88257C13.9951 1.33028 13.5473 0.882567 12.9951 0.882566L1.81363 0.882567C1.26134 0.882566 0.813629 1.33028 0.81363 1.88257C0.81363 2.43485 1.26135 2.88257 1.81363 2.88257L7.93077 2.88257C8.82168 2.88257 9.26784 3.95971 8.63788 4.58967L0.935262 12.2923C0.544738 12.6828 0.544738 13.316 0.935262 13.7065C1.32579 14.097 1.95895 14.097 2.34947 13.7065L10.288 5.76802C10.9179 5.13806 11.9951 5.58422 11.9951 6.47513V13.064C11.9951 13.6163 12.4428 14.064 12.9951 14.064C13.5473 14.064 13.9951 13.6163 13.9951 13.064V1.88257Z" fill="white"/>
</svg>
