<svg width="48" height="48" viewBox="0 0 48 48" fill="none" xmlns="http://www.w3.org/2000/svg">
<path fill-rule="evenodd" clip-rule="evenodd" d="M1.44 0C0.64471 0 -0.00448856 0.646286 0.0424986 1.44019C0.787305 14.0245 11.2287 24 24 24C11.2287 24 0.787312 33.9756 0.0424994 46.5598C-0.00448858 47.3537 0.64471 48 1.44 48C2.23529 48 2.8749 47.3532 2.92834 46.5597C3.66863 35.5672 12.8198 26.88 24 26.88C35.1802 26.88 44.3314 35.5672 45.0717 46.5597C45.1251 47.3532 45.7647 48 46.56 48C47.3553 48 48.0045 47.3537 47.9575 46.5598C47.2127 33.9756 36.7712 24 24 24C36.7712 24 47.2127 14.0245 47.9575 1.44019C48.0045 0.646285 47.3553 0 46.56 0C45.7647 0 45.1251 0.646781 45.0717 1.44027C44.3314 12.4328 35.1802 21.12 24 21.12C12.8198 21.12 3.66863 12.4328 2.92834 1.44027C2.8749 0.646781 2.23529 0 1.44 0ZM7.2 0C6.40471 0 5.75408 0.646985 5.816 1.43986C6.55011 10.8405 14.4109 18.24 24 18.24C33.5892 18.24 41.4499 10.8405 42.184 1.43986C42.2459 0.646986 41.5953 0 40.8 0C40.0047 0 39.3671 0.64677 39.2935 1.43865C38.5682 9.24715 31.9979 15.36 24 15.36C16.002 15.36 9.43181 9.24715 8.70649 1.43865C8.63293 0.646771 7.99529 0 7.2 0ZM12.96 0C12.1647 0 11.5113 0.647474 11.6019 1.43758C12.3148 7.65298 17.5937 12.48 24 12.48C30.4064 12.48 35.6852 7.65298 36.3981 1.43759C36.4887 0.647475 35.8353 0 35.04 0C34.2447 0 33.6114 0.648485 33.4935 1.43499C32.8008 6.05625 28.8142 9.6 24 9.6C19.1857 9.6 15.1992 6.05625 14.5065 1.43499C14.3886 0.648484 13.7553 0 12.96 0ZM24 29.76C33.5892 29.76 41.4499 37.1595 42.184 46.5601C42.2459 47.353 41.5953 48 40.8 48C40.0047 48 39.3671 47.3532 39.2935 46.5613C38.5682 38.7529 31.9979 32.64 24 32.64C16.002 32.64 9.43181 38.7529 8.70649 46.5613C8.63293 47.3532 7.99529 48 7.2 48C6.40471 48 5.75408 47.353 5.816 46.5601C6.5501 37.1595 14.4109 29.76 24 29.76ZM24 35.52C30.4064 35.52 35.6852 40.347 36.3981 46.5624C36.4887 47.3525 35.8353 48 35.04 48C34.2447 48 33.6114 47.3515 33.4935 46.565C32.8008 41.9438 28.8142 38.4 24 38.4C19.1857 38.4 15.1992 41.9438 14.5065 46.565C14.3886 47.3515 13.7553 48 12.96 48C12.1647 48 11.5113 47.3525 11.6019 46.5624C12.3148 40.347 17.5937 35.52 24 35.52Z" fill="white"/>
</svg>
