<svg width="48" height="48" viewBox="0 0 48 48" fill="none" xmlns="http://www.w3.org/2000/svg">
<path d="M12 12H12.164C18.7322 11.9345 24.0219 6.56835 24 6.74977e-05C17.4317 -0.0217904 12.0656 5.26781 12 11.8361V12C5.42081 11.9782 0.0656346 17.2678 6.10352e-05 23.8361V24H0.163995C6.73228 23.9235 12.0219 18.5683 12 12C11.9782 18.5683 17.2678 23.9235 23.8361 24H24V23.8361C23.9235 17.2678 18.5683 11.9782 12 12Z" fill="white"/>
<path d="M24 23.8361V24H24.1639C30.7322 23.9345 36.0218 18.5684 36 12.0001C35.9781 18.5684 41.2677 23.9235 47.836 24H47.9999V23.8361C47.9344 17.2678 42.5792 11.9782 36 12.0001C29.4317 11.9782 24.0765 17.2678 24 23.8361Z" fill="white"/>
<path d="M35.836 12H36V11.8361C35.9344 5.25688 30.5683 -0.0217902 24 6.76367e-05C23.9781 6.56835 29.2677 11.9235 35.836 12Z" fill="white"/>
<path d="M12 36H12.164C18.7323 35.9345 24.0219 30.5684 24 24.0001C17.4317 23.9782 12.0656 29.2678 12 35.8361C11.9235 29.2678 6.56835 23.9782 6.74977e-05 24.0001C-0.0217904 30.5684 5.26781 35.9345 11.8361 36H12C11.9782 42.5792 17.2678 47.9344 23.8361 48H24V47.8361C23.9235 41.2678 18.5683 35.9782 12 36Z" fill="white"/>
<path d="M36 35.8361C35.9344 29.2678 30.5683 23.9782 24 24.0001C23.9781 30.5684 29.2677 35.9345 35.836 36H36C29.4317 35.9782 24.0765 41.2678 24 47.8361V48H24.1639C30.7322 47.9344 36.0218 42.5792 36 36H36.1639C42.7322 35.9345 48.0218 30.5684 47.9999 24.0001C41.4317 23.9782 36.0765 29.2678 36 35.8361Z" fill="white"/>
</svg>
