<svg width="48" height="48" viewBox="0 0 48 48" fill="none" xmlns="http://www.w3.org/2000/svg">
<path fill-rule="evenodd" clip-rule="evenodd" d="M15.36 9.99999C15.36 4.47715 19.8371 0 25.36 0H37.76C43.2828 0 47.76 4.47715 47.76 10V31.3435C47.76 31.927 47.287 32.4 46.7035 32.4C46.12 32.4 45.647 31.927 45.647 31.3435V16.2C45.647 8.41999 39.3401 2.11304 31.56 2.11304C23.78 2.11304 17.473 8.41997 17.473 16.2V31.3435C17.473 31.927 17 32.4 16.4165 32.4C15.833 32.4 15.36 31.927 15.36 31.3435V9.99999ZM31.5835 15.6C32.167 15.6 32.64 16.073 32.64 16.6565V38C32.64 43.5229 28.1628 48 22.64 48H10.24C4.71714 48 0.239991 43.5228 0.239991 38L0.239993 16.6565C0.239993 16.073 0.713014 15.6 1.29651 15.6C1.88002 15.6 2.35304 16.073 2.35304 16.6565V31.8C2.35303 39.5801 8.65998 45.887 16.44 45.887C24.2201 45.887 30.527 39.5801 30.527 31.8V16.6565C30.527 16.073 31 15.6 31.5835 15.6Z" fill="white"/>
</svg>
