<svg width="48" height="48" viewBox="0 0 48 48" fill="none" xmlns="http://www.w3.org/2000/svg">
<path d="M47.6698 18.5133C47.8547 18.5133 48 18.3681 48 18.1832V7.18349C48 6.99862 47.8547 6.85337 47.6698 6.85337H41.1315V0.330124C41.1315 0.145254 40.9862 0 40.8013 0H29.7986C29.6136 0 29.4684 0.145254 29.4684 0.330124V6.85337H18.492V0.330124C18.492 0.145254 18.3467 0 18.1618 0H7.15905C6.97413 0 6.82884 0.145254 6.82884 0.330124V6.85337H0.330215C0.145294 6.85337 0 6.99862 0 7.18349V18.1832C0 18.3681 0.145294 18.5133 0.330215 18.5133H6.82884V29.4867H0.330215C0.145294 29.4867 0 29.6319 0 29.8168V40.8165C0 41.0014 0.145294 41.1466 0.330215 41.1466H6.82884V47.6699C6.82884 47.8547 6.97413 48 7.15905 48H18.1618C18.3467 48 18.492 47.8547 18.492 47.6699V41.1466H29.4684V47.6699C29.4684 47.8547 29.6136 48 29.7986 48H40.8013C40.9862 48 41.1315 47.8547 41.1315 47.6699V41.1466H47.6698C47.8547 41.1466 48 41.0014 48 40.8165V29.8036C48 29.6187 47.8547 29.4735 47.6698 29.4735H41.1315V18.5001H47.6698V18.5133ZM47.3396 7.51362V17.8531H41.1315V7.51362H47.3396ZM40.4711 17.8531H30.1288V7.51362H40.4711V17.8531ZM30.1288 0.660248H40.4711V6.85337H30.1288V0.660248ZM29.4684 7.51362V17.8531H18.492V7.51362H29.4684ZM29.4684 18.5133V29.4867H18.492V18.5133H29.4684ZM17.8316 17.8531H7.48927V7.51362H17.8316V17.8531ZM7.48927 0.660248H17.8316V6.85337H7.48927V0.660248ZM0.660429 17.8531V7.51362H6.82884V17.8531H0.660429ZM7.48927 18.5133H17.8316V29.4867H7.48927V18.5133ZM17.8316 30.1337V40.4732H7.48927V30.1337H17.8316ZM0.660429 40.4732V30.1337H6.82884V40.4732H0.660429ZM17.8316 47.3265H7.48927V41.1334H17.8316V47.3265ZM18.492 40.4732V30.1337H29.4684V40.4732H18.492ZM30.1288 30.1337H40.4711V40.4732H30.1288V30.1337ZM40.4711 47.3265H30.1288V41.1334H40.4711V47.3265ZM47.3396 30.1337V40.4732H41.1315V30.1337H47.3396ZM40.4711 29.4735H30.1288V18.5001H40.4711V29.4735Z" fill="white"/>
</svg>
