<svg width="48" height="48" viewBox="0 0 48 48" fill="none" xmlns="http://www.w3.org/2000/svg">
<path d="M24 22.8502C37.2548 22.8502 48 17.735 48 11.4251C48 5.11518 37.2548 0 24 0C10.7452 0 0 5.11518 0 11.4251C0 17.735 10.7452 22.8502 24 22.8502Z" fill="white"/>
<path d="M24 36.3547C37.2548 36.3547 48 33.3316 48 29.6024C48 25.8732 37.2548 22.8501 24 22.8501C10.7452 22.8501 0 25.8732 0 29.6024C0 33.3316 10.7452 36.3547 24 36.3547Z" fill="white"/>
<path d="M24 44.1101C37.2548 44.1101 48 42.374 48 40.2324C48 38.0908 37.2548 36.3547 24 36.3547C10.7452 36.3547 0 38.0908 0 40.2324C0 42.374 10.7452 44.1101 24 44.1101Z" fill="white"/>
<path d="M24 48C37.2548 48 48 47.1292 48 46.0551C48 44.9809 37.2548 44.1101 24 44.1101C10.7452 44.1101 0 44.9809 0 46.0551C0 47.1292 10.7452 48 24 48Z" fill="white"/>
</svg>
