<svg width="48" height="48" viewBox="0 0 48 48" fill="none" xmlns="http://www.w3.org/2000/svg">
<mask id="mask0_891_66" style="mask-type:luminance" maskUnits="userSpaceOnUse" x="0" y="0" width="48" height="48">
<path d="M39 0H9C4.02944 0 0 4.02944 0 9V39C0 43.9706 4.02944 48 9 48H39C43.9706 48 48 43.9706 48 39V9C48 4.02944 43.9706 0 39 0Z" fill="white"/>
</mask>
<g mask="url(#mask0_891_66)">
<path fill-rule="evenodd" clip-rule="evenodd" d="M0 6C0 2.68629 2.68629 0 6 0C9.31371 0 12 2.68629 12 6V12H6C2.68629 12 0 9.31371 0 6ZM24 12H12V24H6C2.68629 24 0 26.6863 0 30C0 33.3137 2.68629 36 6 36H12V42C12 45.3137 14.6863 48 18 48C21.3137 48 24 45.3137 24 42V36H36V42C36 45.3137 38.6863 48 42 48C45.3137 48 48 45.3137 48 42C48 38.6863 45.3137 36 42 36H36V24H42C45.3137 24 48 21.3137 48 18C48 14.6863 45.3137 12 42 12H36V6C36 2.68629 33.3137 0 30 0C26.6863 0 24 2.68629 24 6V12ZM24 24H36V12H24V24ZM24 24V36H12V24H24Z" fill="white"/>
</g>
</svg>
