<svg width="48" height="48" viewBox="0 0 48 48" fill="none" xmlns="http://www.w3.org/2000/svg">
<path d="M48 23.7506C48 23.6675 48 23.5844 48 23.5012C48 21.6249 47.7387 19.7961 47.2519 18.0742C44.6037 7.6952 35.1747 0 24 0C10.7709 0 0 10.7709 0 24C0 37.2291 10.759 48 24 48C36.8728 48 47.4062 37.811 47.9762 25.0807C47.9881 24.9857 47.9881 24.9025 47.9881 24.8075C48 24.6531 48 24.4988 48 24.3444C48 24.3088 48 24.2731 48 24.2375C48 24.1663 48 24.095 48 24.0237C48 23.9169 48 23.8337 48 23.7506ZM47.3944 24.0831C47.3825 24.5463 47.3469 25.0094 47.2994 25.4725C46.765 28.5601 44.0574 30.9233 40.8154 30.9233C37.1816 30.9233 34.2365 27.9664 34.2365 24.3444C34.2365 20.7224 37.1935 17.7655 40.8154 17.7655C44.2949 17.7655 47.1569 20.4849 47.3825 23.905C47.3944 23.9525 47.3944 24.0119 47.3944 24.0831ZM40.8273 17.1598C36.8728 17.1598 33.6546 20.378 33.6546 24.3325C33.6546 28.287 36.8728 31.5052 40.8273 31.5052C43.0717 31.5052 45.0787 30.472 46.3968 28.8451C44.6987 32.479 41.0054 34.9965 36.7303 34.9965C30.8521 34.9965 26.0663 30.2108 26.0663 24.3325C26.0663 18.4542 30.8521 13.6685 36.7303 13.6685C40.9936 13.6685 44.6868 16.186 46.3968 19.8199C45.0787 18.193 43.0717 17.1598 40.8273 17.1598ZM36.7303 13.0747C30.5195 13.0747 25.4725 18.1217 25.4725 24.3325C25.4725 30.5433 30.5195 35.5903 36.7303 35.5903C40.1742 35.5903 43.2736 34.0346 45.3399 31.5764C42.7392 35.9941 37.9179 38.9748 32.4315 38.9748C24.1781 38.9748 17.4567 32.2533 17.4567 24C17.4567 15.7467 24.1781 9.02524 32.4315 9.02524C38.7373 9.02524 44.1524 12.9441 46.3493 18.478C44.3662 15.236 40.8036 13.0747 36.7303 13.0747ZM32.4315 8.43147C23.8456 8.43147 16.8629 15.4142 16.8629 24C16.8629 32.5858 23.8456 39.5685 32.4315 39.5685C37.0866 39.5685 41.2548 37.5141 44.1168 34.2721C40.6373 39.4379 34.7353 42.8461 28.0495 42.8461C17.3736 42.8461 8.69273 34.1653 8.69273 23.4894C8.69273 12.8135 17.3736 4.13261 28.0495 4.13261C36.3266 4.13261 43.4161 9.35774 46.1712 16.6848C43.5468 11.7803 38.3691 8.43147 32.4315 8.43147ZM24 47.4062C11.0915 47.4062 0.593765 36.9085 0.593765 24C0.593765 11.0915 11.0915 0.593765 24 0.593765C31.6714 0.593765 38.4879 4.29886 42.7511 10.0109C39.1054 6.03266 33.8565 3.53884 28.0495 3.53884C17.0411 3.53884 8.09896 12.4928 8.09896 23.4894C8.09896 34.4859 17.0529 43.4399 28.0495 43.4399C35.6616 43.4399 42.288 39.1529 45.6487 32.8827C42.1455 41.3973 33.7615 47.4062 24 47.4062Z" fill="white"/>
</svg>
