<svg width="18" height="17" viewBox="0 0 18 17" fill="none" xmlns="http://www.w3.org/2000/svg">
<path d="M11.125 3.54167C12.6898 3.54167 13.9583 4.81019 13.9583 6.375V10.625C13.9583 12.1898 12.6898 13.4583 11.125 13.4583H6.875C5.31019 13.4583 4.04167 12.1898 4.04167 10.625V6.375C4.04167 4.81019 5.31019 3.54167 6.875 3.54167H11.125Z" fill="#2DCB89"/>
<path fill-rule="evenodd" clip-rule="evenodd" d="M17.5 1.41667C17.5 0.634263 16.8657 0 16.0833 0H1.91667C1.13426 0 0.5 0.634263 0.5 1.41667V15.5833C0.5 16.3657 1.13426 17 1.91667 17H16.0833C16.8657 17 17.5 16.3657 17.5 15.5833V1.41667ZM3.33333 1.41667C2.55093 1.41667 1.91667 2.05093 1.91667 2.83333V14.1667C1.91667 14.9491 2.55093 15.5833 3.33333 15.5833H14.6667C15.4491 15.5833 16.0833 14.9491 16.0833 14.1667V2.83333C16.0833 2.05093 15.4491 1.41667 14.6667 1.41667H3.33333Z" fill="#FFFFFF"/>
</svg>
