<svg width="17" height="17" viewBox="0 0 17 17" fill="none" xmlns="http://www.w3.org/2000/svg">
<path fill-rule="evenodd" clip-rule="evenodd" d="M8.5 16.5C12.9183 16.5 16.5 12.9183 16.5 8.5C16.5 4.08172 12.9183 0.5 8.5 0.5C4.08172 0.5 0.5 4.08172 0.5 8.5C0.5 12.9183 4.08172 16.5 8.5 16.5ZM7.81399 11.6868L12.5116 6.52514C12.7327 6.28228 12.715 5.90622 12.4721 5.68519C12.2292 5.46415 11.8532 5.48185 11.6321 5.72472L8.44257 9.22935C7.83073 9.90163 6.78973 9.95061 6.11746 9.33875L5.33995 8.63112C5.0971 8.41008 4.72104 8.42777 4.5 8.67063C4.27896 8.91349 4.29666 9.28955 4.53952 9.51059L6.97403 11.7263C7.21689 11.9474 7.59295 11.9297 7.81399 11.6868Z" fill="white"/>
</svg>
