<svg width="81" height="52" viewBox="0 0 81 52" fill="none" xmlns="http://www.w3.org/2000/svg">
<rect x="2" y="2" width="77" height="48" rx="24" stroke="white" stroke-width="3"/>
<path fill-rule="evenodd" clip-rule="evenodd" d="M28.6945 36.5C29.661 36.5 30.4445 37.2835 30.4445 38.25V38.5C30.4445 39.3284 31.116 40 31.9445 40C32.7729 40 33.4445 39.3284 33.4445 38.5V38.25C33.4445 37.2835 34.228 36.5 35.1945 36.5L44.95 36.5C45.9165 36.5 46.7 37.2835 46.7 38.25V38.5C46.7 39.3284 47.3716 40 48.2 40C49.0284 40 49.7 39.3284 49.7 38.5V38.25C49.7 37.2835 50.4835 36.5 51.45 36.5H53.5445C54.3729 36.5 55.0445 35.8284 55.0445 35C55.0445 34.1716 54.3729 33.5 53.5445 33.5H52.3722C50.8964 33.5 49.7 32.3036 49.7 30.8278V21.1722C49.7 19.6964 50.8964 18.5 52.3722 18.5H53.5445C54.3729 18.5 55.0445 17.8284 55.0445 17C55.0445 16.1716 54.3729 15.5 53.5445 15.5L51.45 15.5C50.4835 15.5 49.7 14.7165 49.7 13.75V13.5C49.7 12.6716 49.0284 12 48.2 12C47.3716 12 46.7 12.6716 46.7 13.5V13.75C46.7 14.7165 45.9165 15.5 44.95 15.5L35.1945 15.5C34.228 15.5 33.4445 14.7165 33.4445 13.75V13.5C33.4445 12.6716 32.7729 12 31.9445 12C31.116 12 30.4445 12.6716 30.4445 13.5V13.75C30.4445 14.7165 29.661 15.5 28.6945 15.5L27.4556 15.5C26.6271 15.5 25.9556 16.1716 25.9556 17C25.9556 17.8284 26.6271 18.5 27.4556 18.5H28.2C29.4396 18.5 30.4445 19.5049 30.4445 20.7444V31.2556C30.4445 32.4951 29.4396 33.5 28.2 33.5H27.4556C26.6271 33.5 25.9556 34.1716 25.9556 35C25.9556 35.8284 26.6271 36.5 27.4556 36.5H28.6945ZM33.4445 30.5C33.4445 32.1569 34.7876 33.5 36.4445 33.5L43.7 33.5C45.3569 33.5 46.7 32.1569 46.7 30.5V21.5C46.7 19.8431 45.3569 18.5 43.7 18.5L36.4445 18.5C34.7876 18.5 33.4445 19.8431 33.4445 21.5V30.5Z" fill="white"/>
</svg>
