<svg width="81" height="52" viewBox="0 0 81 52" fill="none" xmlns="http://www.w3.org/2000/svg">
<rect x="2" y="2" width="77" height="48" rx="24" stroke="white" stroke-width="3"/>
<path fill-rule="evenodd" clip-rule="evenodd" d="M35.4999 15C35.4999 13.8954 34.6044 13 33.4999 13C32.3953 13 31.4999 13.8954 31.4999 15V15.7501C31.4999 16.4404 30.9403 17 30.2499 17C29.5596 17 29 17.5596 29 18.2499V19C29 20.1046 29.8954 21 31 21C32.1046 21 33 20.1046 33 19V17.7499C33 17.3358 33.3358 17 33.7499 17C34.1641 17 34.4999 17.3358 34.4999 17.7499V19C34.4999 20.1046 35.3953 21 36.4999 21C37.6044 21 38.4999 20.1046 38.4999 19V18.5C38.4999 17.6716 37.8283 17 36.9999 17C36.1715 17 35.4999 16.3284 35.4999 15.5V15ZM23.316 29.0791C23.8246 28.4252 24.7671 28.3074 25.421 28.816L26.4277 29.599C26.7619 29.8589 27.1731 30 27.5964 30H28.1646C28.9022 30 29.5001 30.5979 29.5001 31.3354C29.5001 31.7476 29.6903 32.1366 30.0156 32.3896L30.2643 32.583C30.6118 32.8533 31.0394 33 31.4797 33H32.09C32.8688 33 33.5001 33.6313 33.5001 34.4101V34.6169C33.5001 34.9215 33.6407 35.2091 33.8811 35.3961C34.0214 35.5052 34.1884 35.5744 34.3647 35.5964L34.6815 35.636C35.4408 35.7309 36.1732 35.3183 36.9037 35.0904C37.0921 35.0317 37.2924 35 37.5001 35H38.5001C39.0447 35 39.5385 35.2177 39.8991 35.5708C40.3059 35.969 40.7501 36.3946 41.315 36.4652C41.4378 36.4806 41.5621 36.4806 41.6849 36.4652C42.2499 36.3946 42.6943 35.9689 43.1012 35.5706C43.4618 35.2176 43.9555 35 44.5001 35H45.5001C45.734 35 45.9585 35.0402 46.1672 35.114C46.8451 35.3537 47.5311 35.7344 48.2446 35.6453L48.517 35.6112C48.7393 35.5834 48.9482 35.4897 49.1168 35.3422C49.3604 35.1291 49.5001 34.8212 49.5001 34.4976V34.3804C49.5001 33.618 50.1181 33 50.8805 33H51.3684C51.6425 33 51.9073 32.9005 52.1136 32.72C52.3592 32.5051 52.5001 32.1947 52.5001 31.8683V31.6384C52.5001 30.7335 53.2336 30 54.1385 30H54.4787C54.958 30 55.421 29.826 55.7817 29.5104L56.5123 28.8711C57.1358 28.3256 58.0834 28.3888 58.6289 29.0122C59.1745 29.6357 59.1113 30.5833 58.4878 31.1289L58.2064 31.3751C57.7575 31.7679 57.5001 32.3353 57.5001 32.9317V33.5C57.5001 34.3284 56.8285 35 56.0001 35C55.1716 35 54.5001 35.6716 54.5001 36.5C54.5001 37.3284 53.8285 38 53.0001 38H50.8308C50.7046 38 50.5828 38.0458 50.4878 38.1289C50.2625 38.3261 49.9833 38.4513 49.6861 38.4884L49.6265 38.4959C48.2121 38.6727 46.9618 39.9741 45.5366 39.9997C45.5245 39.9999 45.5123 40 45.5001 40H44.5001C44.3746 40 44.2517 39.9884 44.1326 39.9663C43.3172 39.8149 42.5089 39.3856 41.686 39.4884C41.5624 39.5039 41.4374 39.5039 41.3139 39.4884C40.4911 39.3856 39.6829 39.8148 38.8677 39.9663C38.7485 39.9884 38.6257 40 38.5001 40H37.5001C37.4879 40 37.4757 39.9999 37.4635 39.9997C36.0383 39.9741 34.7881 38.6727 33.3737 38.4959L33.314 38.4884C33.0461 38.4549 32.7923 38.3498 32.5792 38.184C32.4258 38.0648 32.2371 38 32.0428 38H30.5071C29.3986 38 28.5001 37.1014 28.5001 35.993V35.0223C28.5001 35.0154 28.4969 35.0089 28.4915 35.0047C28.4875 35.0017 28.4827 35 28.4777 35H26.5817C25.432 35 24.5001 34.068 24.5001 32.9184C24.5001 32.276 24.2035 31.6696 23.6964 31.2752L23.5792 31.184C22.9252 30.6754 22.8074 29.733 23.316 29.0791ZM53 18.2501C53 17.5597 52.4403 17 51.7499 17C51.0595 17 50.4999 16.4403 50.4999 15.7499V15C50.4999 13.8954 49.6044 13 48.4999 13C47.3953 13 46.4999 13.8954 46.4999 15V15.5C46.4999 16.3284 45.8283 17 44.9999 17C44.1715 17 43.4999 17.6716 43.4999 18.5V19C43.4999 20.1046 44.3953 21 45.4999 21C46.6044 21 47.4999 20.1046 47.4999 19V17.7501C47.4999 17.3358 47.8357 17 48.2499 17C48.6642 17 49 17.3358 49 17.7501V19C49 20.1046 49.8954 21 51 21C52.1046 21 53 20.1046 53 19V18.2501Z" fill="white"/>
</svg>
