<svg width="665" height="634" viewBox="0 0 665 634" fill="none" xmlns="http://www.w3.org/2000/svg">
<g opacity="0.22">
<rect x="0.514404" y="0.0690918" width="664.404" height="633.931" rx="12" fill="#161616"/>
<g>
<path d="M458.839 301.858C455.057 301.858 451.565 300.575 448.736 298.145C441.956 292.321 436.443 285.877 432.343 278.992C430.028 275.101 428.413 271.104 427.075 267.021C425.629 269.069 424.06 271.117 422.162 273.053C418.327 276.964 413.771 280.855 407.832 285.3C404.778 287.582 401.052 289.607 396.439 291.487C394.587 292.242 392.605 292.624 390.542 292.624C385.747 292.624 381.016 290.461 378.201 286.976C374.222 282.055 373.876 275.912 377.273 270.543C377.707 269.854 378.141 269.162 378.575 268.472C381.401 263.968 384.322 259.312 387.954 254.982C391.792 250.405 396.177 246.411 401.045 243.054C398.516 242.388 395.939 241.643 393.357 240.63C383.678 236.828 375.042 231.318 367.684 224.248C362.742 219.496 361.839 213.217 365.201 207.024C367.995 201.883 372.233 199.383 378.155 199.383C378.666 199.383 379.202 199.403 379.752 199.439C383.268 199.68 386.641 200.181 389.775 200.93C399.885 203.347 409.057 207.281 417.147 212.656C416.947 200.607 419.872 188.765 425.874 177.348C428.651 172.069 433.915 168.916 439.953 168.916C440.747 168.916 441.56 168.972 442.365 169.078C448.554 169.899 453.842 174.803 455.232 180.999C456.696 187.532 457.057 194.47 456.335 202.209C455.943 206.44 455.225 211.815 453.215 217.283C454.16 216.966 455.123 216.666 456.108 216.393C463.479 214.328 471.03 213.283 478.549 213.283C482.492 213.283 486.491 213.573 490.438 214.144C500.23 215.558 505.718 221.844 504.765 230.543C504.38 234.042 502.534 238.909 495.916 242.226C492.305 244.037 488.586 245.379 485.304 246.566C477.698 249.313 470.561 250.757 463.479 250.982C462.621 251.008 461.742 251.021 460.793 251.021C460.331 251.021 459.869 251.021 459.41 251.011C462.064 254.131 464.604 257.465 466.687 261.297L466.859 261.61L466.995 261.936C467.374 262.833 467.776 263.737 468.204 264.69C469.24 267.012 470.315 269.412 471.142 272.05C472.462 276.265 473.534 280.67 474.329 285.152C475.47 291.592 471.653 298.23 465.441 300.592C463.231 301.432 461.007 301.858 458.836 301.858H458.839Z" fill="url(#paint0_linear_343_365)"/>
</g>
<g>
<path d="M333.872 489.281H333.672C311.625 489.255 289.94 485.321 269.206 477.59C249.146 470.109 230.501 459.274 213.794 445.388C197.21 431.605 183.016 415.217 171.614 396.681C159.965 377.749 151.529 357.051 146.537 335.16C145.119 328.94 149.349 322.818 155.984 321.488L171.09 318.46C177.726 317.131 184.255 321.097 185.674 327.317C202.36 400.505 263.234 451.678 333.704 451.76H333.872C404.418 451.76 465.356 400.588 482.063 327.317C483.482 321.097 490.012 317.131 496.647 318.46L511.753 321.488C518.388 322.818 522.618 328.94 521.2 335.16C516.201 357.087 507.744 377.819 496.068 396.776C484.633 415.336 470.405 431.74 453.778 445.527C437.029 459.416 418.338 470.241 398.236 477.702C377.523 485.387 355.87 489.284 333.872 489.284V489.281Z" fill="url(#paint1_linear_343_365)"/>
</g>
<g>
<path d="M227.762 285.762L176.029 216.106C168.63 206.144 174.71 192.41 187.523 190.153L188.643 189.956C196.046 188.65 203.548 191.749 207.451 197.728L239.341 246.535C242.17 250.867 249.279 249.623 250.214 244.634L260.787 188.276C262.077 181.405 267.817 175.998 275.202 174.696L275.354 174.669C288.192 172.407 299.285 183.151 296.3 194.952L275.421 277.431C273.025 286.893 264.849 294.162 254.554 295.977C244.23 297.796 233.725 293.793 227.762 285.765V285.762Z" fill="url(#paint2_linear_343_365)"/>
</g>
<g>
<path d="M591.097 39.2441H75.5332C54.0797 39.2441 36.6882 55.5998 36.6882 75.7754V560.632C36.6882 580.807 54.0797 597.163 75.5332 597.163H591.097C612.551 597.163 629.942 580.807 629.942 560.632V75.7754C629.942 55.5998 612.551 39.2441 591.097 39.2441ZM593.812 86.7441V230.87C593.812 235.307 587.253 236.383 585.646 232.213C584.061 228.102 582.359 224.025 580.539 219.981C567.023 189.932 547.678 162.947 523.043 139.779C498.408 116.612 469.714 98.4186 437.762 85.7082C433.462 83.9961 429.123 82.3962 424.756 80.9051C420.388 79.4141 421.465 73.2254 426.183 73.2254H579.437C587.379 73.2254 593.816 79.2788 593.816 86.7474L593.812 86.7441ZM565.501 318.203C565.501 438.604 461.341 536.56 333.315 536.56C204.868 536.56 101.129 439 101.129 318.203C101.129 197.803 205.289 99.847 333.315 99.847C461.762 99.847 565.501 197.407 565.501 318.203ZM87.193 73.2221H240.447C245.165 73.2221 246.309 79.391 241.875 80.9018C237.441 82.4127 233.169 83.9928 228.868 85.7049C196.916 98.4153 168.222 116.608 143.587 139.776C118.952 162.944 99.607 189.928 86.0916 219.977C84.2711 224.022 82.5698 228.102 80.9843 232.209C79.3742 236.379 72.8182 235.304 72.8182 230.867V86.7441C72.8182 79.2755 79.2549 73.2221 87.1965 73.2221H87.193ZM72.8147 549.663V405.537C72.8147 401.1 79.3742 400.025 80.9808 404.194C82.5663 408.305 84.2676 412.382 86.0881 416.43C99.6035 446.479 118.949 473.463 143.584 496.631C168.219 519.799 196.912 537.992 228.865 550.702C233.165 552.414 237.504 554.014 241.871 555.505C246.305 557.019 245.162 563.185 240.444 563.185H87.1895C79.2479 563.185 72.8112 557.131 72.8112 549.663H72.8147ZM579.434 563.188H426.18C421.462 563.188 420.318 557.019 424.752 555.508C429.123 554.017 433.458 552.417 437.759 550.705C469.711 537.995 498.404 519.802 523.04 496.634C547.675 473.466 567.02 446.482 580.535 416.433C582.356 412.389 584.057 408.308 585.643 404.201C587.253 400.031 593.809 401.107 593.809 405.543V549.67C593.809 557.138 587.372 563.191 579.43 563.191L579.434 563.188Z" fill="url(#paint3_linear_343_365)"/>
</g>
</g>
<defs>
<linearGradient id="paint0_linear_343_365" x1="434.036" y1="301.858" x2="434.036" y2="168.916" gradientUnits="userSpaceOnUse">
<stop offset="0.345"/>
<stop offset="0.77" stop-color="#414141"/>
<stop offset="1"/>
</linearGradient>
<linearGradient id="paint1_linear_343_365" x1="333.869" y1="489.284" x2="333.869" y2="318.204" gradientUnits="userSpaceOnUse">
<stop offset="0.345"/>
<stop offset="0.77" stop-color="#414141"/>
<stop offset="1"/>
</linearGradient>
<linearGradient id="paint2_linear_343_365" x1="234.809" y1="296.41" x2="234.809" y2="174.366" gradientUnits="userSpaceOnUse">
<stop offset="0.345"/>
<stop offset="0.77" stop-color="#414141"/>
<stop offset="1"/>
</linearGradient>
<linearGradient id="paint3_linear_343_365" x1="333.315" y1="597.163" x2="333.315" y2="39.2441" gradientUnits="userSpaceOnUse">
<stop offset="0.345"/>
<stop offset="0.77" stop-color="#414141"/>
<stop offset="1"/>
</linearGradient>
</defs>
</svg>
