<svg width="24" height="25" viewBox="0 0 24 25" fill="none" xmlns="http://www.w3.org/2000/svg">
<path d="M12 2.3585C15.2041 2.3585 15.5836 2.37069 16.849 2.42842C18.019 2.48182 18.6544 2.67731 19.0773 2.8416C19.6373 3.05929 20.0371 3.31937 20.457 3.73926C20.8769 4.15916 21.137 4.55895 21.3546 5.11903C21.519 5.54193 21.7145 6.17732 21.7679 7.34726C21.8256 8.61266 21.8378 8.99216 21.8378 12.1963C21.8378 15.4005 21.8256 15.78 21.7679 17.0453C21.7145 18.2153 21.519 18.8507 21.3546 19.2736C21.137 19.8337 20.8769 20.2335 20.457 20.6534C20.0371 21.0733 19.6373 21.3333 19.0773 21.551C18.6544 21.7153 18.019 21.9108 16.849 21.9642C15.5838 22.0219 15.2043 22.0341 12 22.0341C8.79563 22.0341 8.41613 22.0219 7.15097 21.9642C5.98098 21.9108 5.34559 21.7153 4.92274 21.551C4.36261 21.3333 3.96282 21.0733 3.54293 20.6534C3.12303 20.2335 2.86295 19.8337 2.64531 19.2736C2.48097 18.8507 2.28548 18.2153 2.23209 17.0454C2.17435 15.78 2.16216 15.4005 2.16216 12.1963C2.16216 8.99216 2.17435 8.61266 2.23209 7.34731C2.28548 6.17732 2.48097 5.54193 2.64531 5.11903C2.86295 4.55895 3.12303 4.15916 3.54293 3.73926C3.96282 3.31937 4.36261 3.05929 4.92274 2.8416C5.34559 2.67731 5.98098 2.48182 7.15092 2.42842C8.41632 2.37069 8.79582 2.3585 12 2.3585ZM12 0.196289C8.74095 0.196289 8.33234 0.210103 7.05242 0.268502C5.77511 0.326806 4.90283 0.529632 4.1395 0.826297C3.35039 1.13297 2.68118 1.54329 2.01406 2.2104C1.34695 2.87752 0.936629 3.54673 0.629961 4.33583C0.333296 5.09917 0.13047 5.97145 0.0721656 7.24875C0.0137662 8.52863 0 8.93729 0 12.1963C0 15.4554 0.0137662 15.864 0.0721656 17.1439C0.13047 18.4212 0.333296 19.2935 0.629961 20.0568C0.936629 20.8459 1.34695 21.5151 2.01406 22.1822C2.68118 22.8494 3.35039 23.2597 4.1395 23.5663C4.90283 23.863 5.77511 24.0658 7.05242 24.1241C8.33234 24.1825 8.74095 24.1963 12 24.1963C15.259 24.1963 15.6677 24.1825 16.9475 24.1241C18.2248 24.0658 19.0971 23.863 19.8605 23.5663C20.6496 23.2597 21.3188 22.8494 21.9859 22.1822C22.653 21.5151 23.0633 20.8459 23.37 20.0568C23.6667 19.2935 23.8695 18.4212 23.9278 17.1439C23.9862 15.864 24 15.4554 24 12.1963C24 8.93729 23.9862 8.52863 23.9278 7.24875C23.8695 5.97145 23.6667 5.09917 23.37 4.33583C23.0633 3.54673 22.653 2.87752 21.9859 2.2104C21.3188 1.54329 20.6496 1.13297 19.8605 0.826297C19.0971 0.529632 18.2248 0.326806 16.9475 0.268502C15.6677 0.210103 15.259 0.196289 12 0.196289ZM12 6.03413C8.59671 6.03413 5.83779 8.79305 5.83779 12.1963C5.83779 15.5996 8.59671 18.3585 12 18.3585C15.4032 18.3585 18.1622 15.5996 18.1622 12.1963C18.1622 8.79305 15.4032 6.03413 12 6.03413ZM12 16.1963C9.79085 16.1963 7.99995 14.4054 7.99995 12.1963C7.99995 9.98719 9.79085 8.19629 12 8.19629C14.2091 8.19629 16 9.98719 16 12.1963C16 14.4054 14.2091 16.1963 12 16.1963ZM19.8456 5.79067C19.8456 6.58597 19.2009 7.2307 18.4056 7.2307C17.6103 7.2307 16.9656 6.58597 16.9656 5.79067C16.9656 4.99538 17.6103 4.3507 18.4056 4.3507C19.2009 4.3507 19.8456 4.99538 19.8456 5.79067Z" fill="white"/>
</svg>
