<svg width="24" height="25" viewBox="0 0 24 25" fill="none" xmlns="http://www.w3.org/2000/svg">
<path d="M17.5133 5.48629C16.7158 4.57584 16.2763 3.40662 16.2767 2.19629H12.6717V16.6629C12.6439 17.4458 12.3133 18.1873 11.7497 18.7313C11.1861 19.2754 10.4334 19.5795 9.65 19.5796C7.99333 19.5796 6.61667 18.2263 6.61667 16.5463C6.61667 14.5396 8.55333 13.0346 10.5483 13.6529V9.96629C6.52333 9.42962 3 12.5563 3 16.5463C3 20.4313 6.22 23.1963 9.63833 23.1963C13.3017 23.1963 16.2767 20.2213 16.2767 16.5463V9.20795C17.7385 10.2577 19.4936 10.821 21.2933 10.8179V7.21295C21.2933 7.21295 19.1 7.31795 17.5133 5.48629Z" fill="white"/>
</svg>
