<svg width="499" height="190" viewBox="0 0 499 190" fill="none" xmlns="http://www.w3.org/2000/svg">
<path d="M0 52.8564H46.512L71.3518 127.381H76.1104L100.95 52.8564H147.195L95.3985 184.987H52.059L0 52.8564Z" fill="white"/>
<path d="M196.612 0V37.2623H153.009V0H196.612ZM196.349 52.8568V184.987H153.272V52.8568H196.349Z" fill="white"/>
<path d="M270.606 186.306C238.895 186.306 222.245 169.129 222.245 136.096V84.2995H205.861V52.8521H222.245V18.4995H265.321V52.8521H297.825V84.2995H265.321V136.096C265.321 146.401 269.287 150.893 278.006 150.893C283.028 150.893 286.2 150.63 294.657 149.307L300.209 183.133C289.11 185.513 280.916 186.306 270.61 186.306H270.606Z" fill="white"/>
<path d="M372.349 47.8354C412.783 47.8354 433.92 67.3909 433.92 104.916V184.987H390.581V164.108H386.09C373.935 182.077 361.513 190.004 344.337 190.004C320.29 190.004 305.488 174.676 305.488 151.155C305.488 123.406 326.1 106.76 358.871 106.76H390.581V103.855C390.581 89.5835 384.241 82.7131 370.495 82.7131C360.715 82.7131 352.789 88.2651 346.181 100.42L309.449 84.2993C321.078 59.9851 342.483 47.8303 372.344 47.8303L372.349 47.8354ZM360.987 156.712C370.767 156.712 380.28 146.406 390.586 125.264H366.539C355.97 125.264 348.039 132.398 348.039 142.441C348.039 151.16 353.324 156.712 360.987 156.712Z" fill="white"/>
<path d="M498.402 135.833V184.988H449.248V135.833H498.402Z" fill="white"/>
</svg>
