<svg width="36" height="34" viewBox="0 0 36 34" fill="none" xmlns="http://www.w3.org/2000/svg">
<g style="mix-blend-mode:screen">
<path d="M24.7218 15.7776C24.8915 15.9257 25.1009 16.0039 25.3278 16.0039C25.4581 16.0039 25.5915 15.978 25.7241 15.9267C26.0968 15.7828 26.3258 15.3783 26.2573 14.9858C26.2096 14.7127 26.1453 14.4442 26.0661 14.1874C26.017 14.0281 25.9532 13.883 25.8915 13.7427L25.8898 13.7389C25.8642 13.6808 25.84 13.6257 25.8174 13.5711L25.8092 13.5512L25.7989 13.5321C25.6738 13.2986 25.5215 13.0954 25.3622 12.9053C25.3898 12.9059 25.4175 12.9059 25.4452 12.9059C25.5022 12.9059 25.5549 12.9051 25.6064 12.9035C26.0313 12.8898 26.4595 12.8018 26.9158 12.6344L26.9198 12.6329C27.1157 12.5609 27.3373 12.4795 27.5525 12.3699C27.9496 12.1678 28.0603 11.8711 28.0835 11.6579C28.1406 11.1278 27.8113 10.7447 27.2239 10.6585C26.9871 10.6238 26.7471 10.6061 26.5105 10.6061C26.0594 10.6061 25.6064 10.6698 25.1641 10.7956C25.1051 10.8123 25.0473 10.8306 24.9905 10.8498C25.1112 10.5167 25.1542 10.1891 25.1778 9.93125C25.2211 9.45959 25.1994 9.03677 25.1116 8.63867C25.0282 8.26106 24.7109 7.96223 24.3396 7.91219C24.2913 7.90576 24.2425 7.90234 24.1948 7.90234C23.8326 7.90234 23.5168 8.09446 23.3502 8.4162C22.99 9.11193 22.8146 9.83358 22.8266 10.5679C22.3412 10.2403 21.7909 10.0006 21.1843 9.85328C20.9963 9.80766 20.7939 9.77711 20.583 9.76244C20.55 9.76023 20.5178 9.75903 20.4871 9.75903C20.1318 9.75903 19.8776 9.91136 19.7099 10.2247C19.5082 10.6021 19.5624 10.9847 19.8589 11.2743C20.3004 11.7051 20.8185 12.0409 21.3993 12.2727C21.5541 12.3343 21.7088 12.3798 21.8605 12.4204C21.5684 12.6249 21.3053 12.8683 21.0751 13.1472C20.8573 13.4109 20.6821 13.6945 20.5127 13.9689L20.4342 14.0956C20.2304 14.4227 20.2512 14.7971 20.4899 15.097C20.6588 15.3094 20.9427 15.4412 21.2303 15.4412C21.3541 15.4412 21.473 15.4179 21.5842 15.3719C21.8609 15.2573 22.0844 15.1339 22.2677 14.9949C22.624 14.724 22.8974 14.4868 23.1275 14.2485C23.2413 14.1305 23.3355 14.0057 23.4223 13.8809C23.5025 14.1297 23.5994 14.3733 23.7383 14.6104C23.9843 15.03 24.315 15.4227 24.7218 15.7776Z" fill="white"/>
<path d="M17.8183 27.4256H17.8303C19.1501 27.4256 20.4493 27.1883 21.692 26.72C22.898 26.2653 24.0194 25.6056 25.0244 24.7592C26.0219 23.919 26.8756 22.9193 27.5616 21.7883C28.2622 20.633 28.7696 19.3696 29.0695 18.0334C29.1546 17.6543 28.9008 17.2812 28.5027 17.2002L27.5964 17.0156C27.1983 16.9346 26.8065 17.1763 26.7214 17.5554C25.719 22.0205 22.0629 25.1391 17.8303 25.1391H17.8202C13.5922 25.134 9.93988 22.0155 8.93875 17.5554C8.85366 17.1763 8.46189 16.9346 8.0638 17.0156L7.15745 17.2002C6.75936 17.2812 6.50556 17.6543 6.59065 18.0334C6.89017 19.3674 7.39631 20.6288 8.09518 21.7825C8.77931 22.9121 9.63089 23.9107 10.6259 24.7507C11.6283 25.597 12.7469 26.2572 13.9505 26.7131C15.1945 27.1843 16.4955 27.424 17.8183 27.4256Z" fill="white"/>
<path d="M11.4639 15.0229L8.3601 10.7781C7.91618 10.171 8.28097 9.33399 9.0497 9.19649L9.11692 9.18447C9.56105 9.1049 10.0111 9.2937 10.2453 9.65808L12.1587 12.6324C12.3284 12.8964 12.7549 12.8206 12.811 12.5166L13.4453 9.08205C13.5228 8.66335 13.8671 8.33385 14.3102 8.25448L14.3194 8.25288C15.0896 8.11498 15.7551 8.76978 15.576 9.48892L14.3234 14.5153C14.1796 15.0919 13.6891 15.5348 13.0714 15.6455C12.452 15.7563 11.8217 15.5122 11.4639 15.0229Z" fill="white"/>
<path fill-rule="evenodd" clip-rule="evenodd" d="M2.3306 0H33.2632C34.5503 0 35.5938 0.996724 35.5938 2.22625V31.7738C35.5938 33.0033 34.5503 34 33.2632 34H2.3306C1.04345 34 0 33.0033 0 31.7738V2.22625C0 0.996724 1.04345 0 2.3306 0ZM33.426 11.6778V2.89468C33.426 2.43954 33.0401 2.07085 32.5636 2.07085H23.3687C23.0857 2.07085 23.0211 2.44799 23.2831 2.53885C23.5451 2.62972 23.8054 2.72722 24.0634 2.83156C25.9805 3.60614 27.702 4.71484 29.1801 6.1267C30.6581 7.53856 31.8188 9.18301 32.6297 11.0142C32.7389 11.2607 32.841 11.5092 32.9361 11.7597C33.0325 12.0138 33.426 11.9482 33.426 11.6778ZM17.7969 30.3068C25.4781 30.3068 31.7274 24.3373 31.7274 17C31.7274 9.63855 25.5034 3.69319 17.7969 3.69319C10.1156 3.69319 3.86631 9.66268 3.86631 17C3.86631 24.3614 10.0904 30.3068 17.7969 30.3068ZM12.225 2.07065H3.03037C2.5539 2.07065 2.16771 2.43954 2.16771 2.89468V11.6776C2.16771 11.948 2.56105 12.0136 2.65765 11.7595C2.75278 11.5092 2.85485 11.2605 2.96408 11.014C3.77497 9.18281 4.93564 7.53836 6.41368 6.1265C7.89172 4.71464 9.61326 3.60594 11.5303 2.83136C11.7883 2.72702 12.0447 2.63072 12.3107 2.53865C12.5767 2.44658 12.5081 2.07065 12.225 2.07065ZM2.1675 22.3222V31.1053C2.1675 31.5605 2.55347 31.9294 3.02995 31.9294H12.2248C12.5079 31.9294 12.5765 31.5536 12.3105 31.4613C12.0485 31.3705 11.7881 31.273 11.5301 31.1686C9.61305 30.3941 7.89151 29.2854 6.41347 27.8735C4.93543 26.4616 3.77476 24.8172 2.96387 22.986C2.85464 22.7393 2.75257 22.4908 2.65744 22.2403C2.56105 21.9862 2.1675 22.0518 2.1675 22.3222ZM23.3685 31.9296H32.5634C33.0399 31.9296 33.4258 31.5609 33.4258 31.1057V22.3226C33.4258 22.0522 33.0325 21.9866 32.9359 22.2407C32.8408 22.491 32.7387 22.7397 32.6295 22.9862C31.8186 24.8174 30.6579 26.4618 29.1799 27.8737C27.7018 29.2856 25.9803 30.3943 24.0632 31.1688C23.8052 31.2732 23.5451 31.3707 23.2829 31.4615C23.0168 31.5536 23.0855 31.9296 23.3685 31.9296Z" fill="white"/>
</g>
</svg>
