<svg width="53" height="65" viewBox="0 0 53 65" fill="none" xmlns="http://www.w3.org/2000/svg">
<path d="M26.8191 52.0393C12.4741 52.0393 0.803467 40.374 0.803467 26.0289C0.803467 11.6839 12.4741 0.0133057 26.8191 0.0133057C41.1641 0.0133057 52.8348 11.6839 52.8348 26.0289C52.8348 40.374 41.1641 52.0446 26.8191 52.0446V52.0393ZM26.8191 0.996934C13.0164 0.996934 1.7871 12.2263 1.7871 26.0289C1.7871 39.8316 13.0164 51.061 26.8191 51.061C40.6218 51.061 51.8511 39.8316 51.8511 26.0289C51.8511 12.2263 40.6218 0.996934 26.8191 0.996934Z" fill="white"/>
<path d="M8.56088 53.225C8.84799 53.4218 9.08725 53.6238 9.28398 53.8258C9.4807 54.0279 9.64021 54.2406 9.7625 54.4586L9.11915 54.969C9.00218 54.7616 8.86394 54.5755 8.70443 54.4107C8.54493 54.2459 8.36947 54.097 8.17806 53.9641C7.96538 53.8152 7.74739 53.7142 7.51345 53.6451C7.2795 53.5813 7.04024 53.5706 6.80098 53.6132C6.5564 53.6557 6.31714 53.762 6.0832 53.9269C5.84394 54.0917 5.61531 54.3363 5.392 54.6553C4.99855 55.2242 4.82309 55.7452 4.86562 56.2184C4.90816 56.697 5.16869 57.0957 5.64189 57.4254C5.93964 57.6327 6.18953 57.7604 6.40221 57.8082L7.2157 56.6332L6.39689 56.0643L6.87542 55.3731L8.56619 56.5481L6.92327 58.9088C6.66274 58.8556 6.38626 58.7653 6.09383 58.6376C5.8014 58.5154 5.4877 58.3346 5.15805 58.106C4.81777 57.8667 4.53598 57.5955 4.30735 57.2818C4.08404 56.9681 3.92985 56.6332 3.85009 56.2769C3.77034 55.9207 3.77566 55.5432 3.86073 55.1551C3.9458 54.7616 4.12657 54.3735 4.40305 53.9747C4.67953 53.5759 4.9826 53.2729 5.32288 53.0496C5.66316 52.8316 6.00876 52.6933 6.37563 52.6349C6.73718 52.5764 7.10404 52.6029 7.47623 52.704C7.84841 52.805 8.20464 52.9751 8.55024 53.2197L8.56088 53.225Z" fill="white"/>
<path d="M10.4537 54.5437L11.4479 55.0594L9.20952 59.3874L11.315 60.4774L10.9003 61.2749L7.80054 59.6692L10.4537 54.5437Z" fill="white"/>
<path d="M13.3727 56.0962L14.4254 56.479L13.245 59.7276C13.0643 60.2274 13.0217 60.6262 13.1281 60.9293C13.2291 61.227 13.4896 61.4556 13.899 61.6045C14.3084 61.7534 14.6487 61.7374 14.9199 61.5513C15.1964 61.3706 15.4037 61.0781 15.5473 60.6847L16.7648 57.335L17.8123 57.7178L16.6213 60.9984C16.3501 61.7481 15.9567 62.2425 15.4409 62.4712C14.9305 62.6998 14.3137 62.6838 13.596 62.4233C13.245 62.2957 12.9473 62.1362 12.708 61.9501C12.4635 61.7587 12.2827 61.5407 12.1551 61.2802C12.0328 61.025 11.969 60.7325 11.9743 60.4082C11.9743 60.0839 12.0487 59.7276 12.1923 59.3395L13.3673 56.1015L13.3727 56.0962Z" fill="white"/>
<path d="M22.1031 58.6111L21.917 59.4884L20.2581 59.1321L19.2426 63.9014L18.1473 63.6675L19.1682 58.8982L17.5571 58.5526L17.7432 57.6753L22.1084 58.6058L22.1031 58.6111Z" fill="white"/>
<path d="M22.1722 58.5845L25.8249 58.9141L25.7451 59.7914L23.209 59.5628L23.0814 61.0143L25.3783 61.2217L25.2985 62.0883L22.9963 61.881L22.8474 63.5611L25.4102 63.7897L25.3304 64.667L21.6511 64.3374L22.1669 58.5898L22.1722 58.5845Z" fill="white"/>
<path d="M26.0589 58.946L27.0637 58.8981L29.4191 62.0298C29.5521 62.2052 29.669 62.3807 29.786 62.5562C29.8977 62.7316 29.988 62.8752 30.0519 62.9868C30.0146 62.5668 29.9721 62.1468 29.9508 61.7214C29.9296 61.2961 29.9083 60.876 29.887 60.456L29.802 58.7652L30.8547 58.712L31.1365 64.4756L30.1316 64.5234L27.8826 61.5619C27.7337 61.3599 27.5901 61.1525 27.4519 60.9292C27.3136 60.7112 27.2126 60.5304 27.1382 60.3922C27.1701 60.8441 27.2126 61.2801 27.2339 61.7055C27.2605 62.1308 27.2817 62.5615 27.303 62.9975L27.3828 64.6563L26.33 64.7095L26.0482 58.946H26.0589Z" fill="white"/>
<path d="M36.6235 57.4414L36.8362 58.2974L34.4542 58.8822L34.8477 60.472L37.0383 59.935L37.2456 60.7804L35.0551 61.3174L35.624 63.6302L34.5393 63.8961L33.1622 58.2921L36.6342 57.436L36.6235 57.4414Z" fill="white"/>
<path d="M36.8309 57.3721L38.7716 56.6278C39.0694 56.5161 39.3458 56.4576 39.601 56.4576C39.8563 56.4576 40.0902 56.5002 40.2976 56.5906C40.5049 56.681 40.6857 56.8086 40.8399 56.9787C40.9941 57.1488 41.1164 57.3509 41.2067 57.5848C41.2918 57.8028 41.329 58.0049 41.329 58.1963C41.329 58.3877 41.2971 58.5631 41.244 58.728C41.1908 58.8928 41.1164 59.0417 41.0207 59.1693C40.925 59.3022 40.8292 59.4138 40.7282 59.5095L42.9401 61.2003L41.7491 61.6576L39.8509 60.0625L39.1385 60.3337L39.9201 62.3594L38.9045 62.7529L36.8309 57.3668V57.3721ZM38.8301 59.5308L39.3511 59.3288C39.6755 59.2065 39.9201 59.0363 40.0796 58.8183C40.2391 58.6057 40.2603 58.3398 40.1381 58.0261C40.0264 57.739 39.8616 57.5582 39.6383 57.4732C39.415 57.3881 39.1385 57.4094 38.8141 57.537L38.1655 57.7869L38.8354 59.5308H38.8301Z" fill="white"/>
<path d="M40.9143 55.7452L44.1417 54.0066L44.5617 54.7829L42.318 55.9951L43.0092 57.2765L45.0402 56.1812L45.4549 56.9468L43.4239 58.0421L44.2267 59.5255L46.4917 58.3027L46.9118 59.0789L43.6631 60.8335L40.9196 55.7559L40.9143 55.7452Z" fill="white"/>
<path d="M44.4075 53.8152L47.4009 51.6991L47.9113 52.4169L45.8324 53.8897L46.6725 55.0807L48.5547 53.7461L49.0598 54.4586L47.1776 55.7931L48.1506 57.1702L50.2508 55.6815L50.7612 56.3992L47.7465 58.5313L44.4075 53.8205V53.8152Z" fill="white"/>
<path d="M27.3082 19.8297H26.3246V41.4589H27.3082V19.8297Z" fill="white"/>
<path d="M26.8191 22.419L26.532 22.2063C26.3831 22.1 22.8793 19.5106 22.8793 16.1982C22.8793 12.8858 26.3831 10.3017 26.532 10.1901L26.8191 9.97742L27.1062 10.1901C27.2551 10.2964 30.7589 12.8858 30.7589 16.1982C30.7589 19.5106 27.2551 22.0947 27.1062 22.2063L26.8191 22.419ZM26.8191 11.2216C26.0216 11.8862 23.8576 13.9013 23.8576 16.2035C23.8576 18.5057 26.0216 20.5262 26.8191 21.1855C27.6166 20.5209 29.7806 18.5057 29.7806 16.2035C29.7806 13.9013 27.6166 11.8809 26.8191 11.2216Z" fill="white"/>
<path d="M29.552 28.4963C28.0208 28.4963 26.7819 28.156 26.6862 28.1294L26.3406 28.0337L26.3247 27.6775C26.3193 27.4914 26.1811 23.1369 28.7758 21.0898C31.3757 19.0428 35.5761 20.1913 35.7569 20.2391L36.1025 20.3348L36.1184 20.6911C36.1237 20.8772 36.2673 25.2317 33.6673 27.2787C32.4551 28.2358 30.8919 28.4963 29.552 28.4963ZM27.3136 27.2681C28.3291 27.4808 31.2534 27.9327 33.0612 26.5078C34.8743 25.0775 35.1135 22.132 35.1401 21.0952C34.1299 20.8825 31.2003 20.4305 29.3925 21.8555C27.5795 23.2857 27.3402 26.2313 27.3136 27.2681Z" fill="white"/>
<path d="M24.0809 28.4962C22.741 28.4962 21.1779 28.2357 19.9656 27.2786C17.3656 25.2316 17.5039 20.8718 17.5145 20.691L17.5305 20.3348L17.8761 20.2391C18.0515 20.1912 22.2572 19.0374 24.8572 21.0898C27.4571 23.1368 27.3189 27.4966 27.3083 27.6774L27.2923 28.0336L26.9467 28.1294C26.851 28.1559 25.6122 28.4962 24.0809 28.4962ZM18.4981 21.0951C18.5247 22.1319 18.7693 25.0774 20.5771 26.5077C22.3848 27.9326 25.3091 27.4807 26.3246 27.268C26.2981 26.2312 26.0535 23.2856 24.2457 21.8554C22.438 20.4305 19.5137 20.8824 18.4981 21.0951Z" fill="white"/>
<path d="M30.3655 36.6098C28.4355 36.6098 26.75 35.9717 26.6437 35.9292L26.3087 35.8016L26.33 35.4454C26.3406 35.2593 26.6171 30.9153 29.3978 29.1182C32.1786 27.3264 36.2513 28.8683 36.4268 28.9375L36.7618 29.0651L36.7405 29.4213C36.7299 29.6074 36.4534 33.9513 33.6726 35.7484C32.6571 36.4024 31.4714 36.6098 30.3655 36.6098ZM27.3455 35.1263C28.3345 35.4347 31.2003 36.1631 33.1409 34.919C35.0763 33.6695 35.5974 30.7612 35.725 29.7297C34.736 29.4213 31.8649 28.6929 29.9295 29.937C27.9942 31.1865 27.4731 34.0949 27.3455 35.1263Z" fill="white"/>
<path d="M23.2727 36.6098C22.1668 36.6098 20.9811 36.3971 19.9656 35.7484C17.1848 33.9566 16.9084 29.6074 16.8977 29.4213L16.8765 29.0651L17.2114 28.9375C17.3816 28.8683 21.4596 27.3264 24.2404 29.1182C27.0211 30.91 27.2976 35.2593 27.3082 35.4454L27.3295 35.8016L26.9945 35.9292C26.8829 35.9717 25.1974 36.6098 23.2727 36.6098ZM17.9133 29.7297C18.0409 30.7612 18.5619 33.6695 20.4973 34.919C22.438 36.1685 25.3038 35.44 26.2927 35.1317C26.1651 34.1055 25.6441 31.1918 23.7087 29.9424C21.7733 28.6929 18.9075 29.4213 17.9133 29.735V29.7297Z" fill="white"/>
</svg>
