<svg width="53" height="65" viewBox="0 0 53 65" fill="none" xmlns="http://www.w3.org/2000/svg">
<path d="M26.7565 52.026C12.4115 52.026 0.740845 40.3607 0.740845 26.0156C0.740845 11.6706 12.4115 0 26.7565 0C41.1015 0 52.7721 11.6706 52.7721 26.0156C52.7721 40.3607 41.1015 52.0313 26.7565 52.0313V52.026ZM26.7565 0.983629C12.9538 0.983629 1.72447 12.2129 1.72447 26.0156C1.72447 39.8183 12.9538 51.0477 26.7565 51.0477C40.5592 51.0477 51.7885 39.8183 51.7885 26.0156C51.7885 12.2129 40.5592 0.983629 26.7565 0.983629Z" fill="white"/>
<path d="M14.8572 56.5346C15.2347 56.6835 15.5538 56.8802 15.8249 57.1248C16.0961 57.3694 16.2981 57.6565 16.4364 57.9862C16.5746 58.3105 16.6437 58.672 16.6384 59.0708C16.6384 59.4643 16.5427 59.8896 16.3672 60.3362C16.1971 60.7722 15.9791 61.1391 15.7079 61.4262C15.4421 61.7133 15.1444 61.9313 14.8147 62.0749C14.4851 62.2184 14.1341 62.2929 13.7673 62.2929C13.3951 62.2929 13.0229 62.2184 12.6507 62.0695C12.2732 61.9207 11.9542 61.7293 11.6777 61.4847C11.4066 61.2401 11.1992 60.9583 11.061 60.634C10.9227 60.3097 10.8536 59.9534 10.8589 59.5547C10.8589 59.1612 10.9546 58.7358 11.1301 58.2892C11.3002 57.8532 11.5182 57.4864 11.7894 57.1939C12.0552 56.9015 12.3583 56.6835 12.6879 56.5346C13.0176 56.3858 13.3685 56.3167 13.7354 56.3167C14.1076 56.3167 14.4797 56.3911 14.8519 56.54L14.8572 56.5346ZM12.2413 58.7199C12.1084 59.0549 12.0393 59.3632 12.0233 59.6344C12.0074 59.9109 12.0393 60.1555 12.1137 60.3735C12.1882 60.5914 12.3051 60.7722 12.4593 60.9264C12.6135 61.0806 12.7943 61.1976 13.007 61.2773C13.2196 61.3571 13.427 61.3943 13.645 61.389C13.8577 61.3783 14.065 61.3199 14.2618 61.2135C14.4585 61.1019 14.6446 60.9424 14.8147 60.7297C14.9848 60.517 15.139 60.2405 15.272 59.9056C15.4049 59.5653 15.4793 59.2516 15.5006 58.9698C15.5165 58.688 15.49 58.4381 15.4155 58.2201C15.3411 58.0021 15.2241 57.8213 15.0699 57.6725C14.9157 57.5236 14.735 57.4066 14.5223 57.3269C14.3096 57.2471 14.0969 57.2099 13.8842 57.2205C13.6716 57.2312 13.4642 57.2896 13.2675 57.4013C13.0708 57.513 12.8847 57.6778 12.7092 57.8958C12.5338 58.1138 12.3849 58.3902 12.252 58.7199H12.2413Z" fill="white"/>
<path d="M17.6327 57.6299L19.6637 58.0871C19.9721 58.1563 20.2327 58.2626 20.4453 58.4062C20.658 58.5497 20.8228 58.7145 20.9504 58.9059C21.0727 59.0974 21.1525 59.3047 21.1844 59.5333C21.2163 59.762 21.2056 59.9959 21.1525 60.2405C21.0993 60.4691 21.0196 60.6605 20.9132 60.8147C20.8069 60.9742 20.6846 61.1018 20.5463 61.2135C20.4081 61.3198 20.2646 61.3996 20.1157 61.4581C19.9668 61.5165 19.8232 61.5538 19.685 61.5803L20.5836 64.2175L19.3394 63.9357L18.6482 61.5538L17.9038 61.3836L17.4253 63.4998L16.3619 63.2605L17.6327 57.6299ZM18.0953 60.5329L18.6429 60.6552C18.9832 60.7296 19.2809 60.7243 19.5308 60.6339C19.7807 60.5436 19.9455 60.3362 20.02 60.0065C20.0891 59.7088 20.0519 59.4642 19.9083 59.2675C19.7701 59.0708 19.5255 58.9378 19.1905 58.8581L18.51 58.7039L18.0953 60.5276V60.5329Z" fill="white"/>
<path d="M24.5393 58.6933C24.8849 58.7198 25.1986 58.773 25.4698 58.8528C25.7409 58.9325 25.9855 59.0335 26.2035 59.1611L25.9005 59.9268C25.6984 59.8045 25.4804 59.7141 25.2624 59.6503C25.0391 59.5865 24.8158 59.544 24.5819 59.528C24.3266 59.5067 24.0821 59.528 23.8481 59.5865C23.6142 59.6503 23.4015 59.7566 23.2154 59.9161C23.0293 60.0757 22.8751 60.2883 22.7475 60.5489C22.6252 60.8094 22.5508 61.139 22.5136 61.5272C22.4604 62.213 22.5668 62.7554 22.8485 63.1435C23.125 63.5316 23.5504 63.7496 24.1246 63.7975C24.4862 63.8294 24.768 63.8081 24.9753 63.7496L25.0923 62.3247L24.098 62.2449L24.1671 61.4049L26.2195 61.5697L25.9855 64.4355C25.7356 64.5206 25.4485 64.5791 25.1348 64.6163C24.8211 64.6535 24.4596 64.6588 24.0608 64.6269C23.6461 64.595 23.2633 64.4993 22.9123 64.3398C22.5614 64.1803 22.2584 63.9676 22.0138 63.6965C21.7639 63.4253 21.5831 63.101 21.4608 62.7182C21.3385 62.3353 21.296 61.9047 21.3385 61.4261C21.3758 60.9476 21.4874 60.5276 21.6682 60.166C21.849 59.8098 22.0829 59.5121 22.37 59.2834C22.6571 59.0495 22.9868 58.8847 23.359 58.789C23.7312 58.6879 24.1299 58.656 24.55 58.6933H24.5393Z" fill="white"/>
<path d="M28.3622 58.8209L29.4787 58.7465L32.0362 64.3664L30.8558 64.4409L30.255 63.0585L28.107 63.1967L27.6869 64.6482L26.5278 64.7227L28.3675 58.8209H28.3622ZM28.3143 62.3513L29.9147 62.2503L29.5585 61.4209C29.4575 61.171 29.3617 60.937 29.2714 60.7137C29.181 60.4957 29.0853 60.2511 28.9896 59.9906C28.9045 60.2458 28.8354 60.4957 28.7716 60.735C28.7078 60.9742 28.6386 61.2241 28.5642 61.49L28.3196 62.3566L28.3143 62.3513Z" fill="white"/>
<path d="M31.5311 58.5977L32.5147 58.3797L35.3593 61.07C35.5188 61.2242 35.6676 61.3784 35.8059 61.5273C35.9441 61.6815 36.0558 61.8091 36.1408 61.9101C36.0292 61.5007 35.9229 61.0913 35.8325 60.6766C35.7421 60.2619 35.6517 59.8471 35.5613 59.4377L35.1944 57.7842L36.2206 57.5555L37.4648 63.1915L36.4811 63.4095L33.7695 60.8627C33.5887 60.6925 33.408 60.5064 33.2378 60.315C33.0677 60.1236 32.9348 59.9641 32.839 59.8418C32.9507 60.2778 33.057 60.7032 33.1527 61.1179C33.2484 61.5326 33.3442 61.9526 33.4345 62.3833L33.7908 63.9996L32.7593 64.2283L31.5151 58.5923L31.5311 58.5977Z" fill="white"/>
<path d="M37.9167 56.9174L39.7829 62.3778L38.7249 62.7394L36.8586 57.2789L37.9167 56.9174Z" fill="white"/>
<path d="M43.2176 60.0863C43.4782 59.9693 43.6855 59.847 43.845 59.7194C44.0045 59.5918 44.1375 59.4589 44.2438 59.3153L44.8127 59.9799C44.6904 60.1288 44.5256 60.2883 44.3129 60.4531C44.1002 60.618 43.8184 60.7775 43.4782 60.937C43.1007 61.1071 42.7232 61.2081 42.3403 61.2347C41.9575 61.2613 41.596 61.2134 41.2557 61.0912C40.9154 60.9689 40.6017 60.7721 40.3146 60.4957C40.0275 60.2192 39.7882 59.8683 39.5915 59.4429C39.4001 59.0282 39.2938 58.6188 39.2672 58.2253C39.2406 57.8319 39.2938 57.465 39.4214 57.1247C39.549 56.7845 39.751 56.4761 40.0222 56.1996C40.2933 55.9231 40.6283 55.6945 41.0271 55.5137C41.3833 55.3489 41.6864 55.2479 41.9416 55.2053C42.1968 55.1628 42.4254 55.1469 42.6221 55.1575L42.7391 56.0295C42.5371 56.0241 42.335 56.0295 42.1383 56.0614C41.9416 56.0933 41.7342 56.1571 41.5056 56.2634C41.2716 56.3697 41.0696 56.508 40.8888 56.6728C40.7134 56.8376 40.5804 57.029 40.5007 57.2524C40.4209 57.4757 40.3837 57.7256 40.405 58.0127C40.4263 58.2945 40.5113 58.6082 40.6708 58.9538C40.825 59.2887 41.0005 59.5546 41.1972 59.7566C41.3939 59.9587 41.6066 60.1022 41.8299 60.1873C42.0532 60.2724 42.2765 60.3096 42.5158 60.2883C42.7497 60.267 42.9837 60.2032 43.2176 60.0969V60.0863Z" fill="white"/>
<path d="M26.4162 29.4983C26.3683 29.4983 26.3205 29.4929 26.2779 29.4823C26.0759 29.4291 21.3279 28.169 18.3398 24.2983C15.3517 20.4276 15.3411 15.5095 15.3411 15.3021C15.3411 15.132 15.4208 14.9671 15.5591 14.8608C15.6973 14.7545 15.8728 14.7172 16.0376 14.7598C16.2396 14.8129 20.9876 16.0731 23.9757 19.9438C26.9638 23.8145 26.9745 28.7326 26.9745 28.94C26.9745 29.1101 26.8947 29.2749 26.7565 29.3813C26.6555 29.4557 26.5385 29.4983 26.4162 29.4983ZM16.5002 16.0837C16.6278 17.5724 17.1435 20.9221 19.2224 23.6177C21.3013 26.3134 24.4064 27.6639 25.8154 28.1637C25.6878 26.675 25.172 23.3306 23.0931 20.635C21.0089 17.934 17.9091 16.5888 16.5002 16.089V16.0837Z" fill="white"/>
<path d="M26.7671 29.4982C26.6395 29.4982 26.5172 29.4557 26.4162 29.3706C26.2833 29.2643 26.2036 29.0994 26.2089 28.924C26.2089 28.7166 26.3418 23.8038 29.4256 20.0022C32.5041 16.2059 37.284 15.0575 37.486 15.0149C37.6562 14.9777 37.8316 15.0149 37.9646 15.1266C38.0975 15.2329 38.1772 15.3978 38.1719 15.5732C38.1719 15.7806 38.039 20.6934 34.9552 24.495C31.8767 28.2913 27.0968 29.4397 26.8947 29.4822C26.8522 29.4929 26.8097 29.4982 26.7671 29.4982ZM36.9862 16.3282C35.5666 16.7961 32.4297 18.0722 30.2869 20.7147C28.1389 23.3625 27.5434 26.6909 27.3839 28.1743C28.8035 27.7064 31.9405 26.4357 34.0832 23.7878C36.2259 21.1453 36.8214 17.8116 36.9862 16.3282Z" fill="white"/>
<path d="M26.6023 41.2964C26.294 41.2964 26.0441 41.0465 26.0441 40.7381V27.9935C26.0441 27.6851 26.294 27.4352 26.6023 27.4352C26.9107 27.4352 27.1606 27.6851 27.1606 27.9935V40.7381C27.1606 41.0465 26.9107 41.2964 26.6023 41.2964Z" fill="white"/>
<path d="M26.6023 17.1258C24.8371 17.1258 23.4069 15.6902 23.4069 13.9303C23.4069 12.1704 24.8424 10.7349 26.6023 10.7349C28.3622 10.7349 29.7978 12.1704 29.7978 13.9303C29.7978 15.6902 28.3622 17.1258 26.6023 17.1258ZM26.6023 11.8461C25.4539 11.8461 24.5234 12.7766 24.5234 13.925C24.5234 15.0735 25.4539 16.0039 26.6023 16.0039C27.7508 16.0039 28.6812 15.0735 28.6812 13.925C28.6812 12.7766 27.7508 11.8461 26.6023 11.8461Z" fill="white"/>
</svg>
