<svg width="53" height="65" viewBox="0 0 53 65" fill="none" xmlns="http://www.w3.org/2000/svg">
<path d="M26.7879 52.083C12.4428 52.083 0.772217 40.4177 0.772217 26.0727C0.772217 11.7276 12.4428 0.0570068 26.7879 0.0570068C41.1329 0.0570068 52.8035 11.7276 52.8035 26.0727C52.8035 40.4177 41.1329 52.0883 26.7879 52.0883V52.083ZM26.7879 1.04064C12.9852 1.04064 1.75585 12.27 1.75585 26.0727C1.75585 39.8754 12.9852 51.1047 26.7879 51.1047C40.5906 51.1047 51.8199 39.8754 51.8199 26.0727C51.8199 12.27 40.5906 1.04064 26.7879 1.04064Z" fill="white"/>
<path d="M9.83757 54.3109L10.7361 54.7682L11.2359 58.6548C11.2625 58.8728 11.2785 59.0855 11.2944 59.2929C11.305 59.5002 11.3104 59.6704 11.3157 59.8033C11.4911 59.4205 11.6666 59.0323 11.858 58.6548C12.0494 58.2773 12.2408 57.8998 12.4322 57.5223L13.1979 56.0123L14.139 56.4855L11.5337 61.6376L10.6351 61.1804L10.1513 57.4957C10.1194 57.2458 10.0981 56.996 10.0875 56.7354C10.0768 56.4749 10.0768 56.2675 10.0768 56.1133C9.88542 56.5227 9.69933 56.9215 9.51324 57.299C9.32183 57.6818 9.13042 58.0646 8.9337 58.4581L8.18401 59.9362L7.24292 59.463L9.84821 54.3109H9.83757Z" fill="white"/>
<path d="M16.9569 57.3202C17.3397 57.4425 17.6747 57.618 17.9618 57.8413C18.2489 58.0699 18.4722 58.3411 18.6317 58.6548C18.7912 58.9685 18.8816 59.3247 18.9082 59.7235C18.9294 60.1169 18.871 60.5476 18.7274 61.0049C18.5838 61.4515 18.3924 61.829 18.1425 62.1374C17.898 62.4457 17.6109 62.6797 17.2972 62.8445C16.9781 63.0093 16.6379 63.105 16.2657 63.1316C15.8988 63.1582 15.5213 63.105 15.1332 62.9881C14.7504 62.8658 14.4101 62.6956 14.123 62.467C13.8358 62.2437 13.6125 61.9725 13.4477 61.6588C13.2829 61.3451 13.1925 60.9942 13.1712 60.5955C13.15 60.202 13.2085 59.7713 13.352 59.3141C13.4956 58.8675 13.687 58.4846 13.9369 58.1763C14.1868 57.8679 14.4686 57.6286 14.7876 57.4585C15.1066 57.2883 15.4522 57.1926 15.8191 57.1661C16.1859 57.1395 16.5634 57.1873 16.9516 57.3096L16.9569 57.3202ZM14.4951 59.6756C14.3888 60.0212 14.3356 60.3296 14.3356 60.6061C14.3356 60.8826 14.3835 61.1272 14.4739 61.3345C14.5643 61.5472 14.6919 61.7226 14.8567 61.8609C15.0215 62.0044 15.2076 62.1055 15.4256 62.1746C15.6436 62.2437 15.8563 62.265 16.0689 62.2437C16.2816 62.2224 16.4837 62.148 16.6698 62.0257C16.8559 61.9034 17.0313 61.728 17.1908 61.5047C17.3503 61.2813 17.4832 60.9942 17.5896 60.6486C17.7012 60.2977 17.7544 59.984 17.7544 59.7022C17.7544 59.4204 17.7066 59.1758 17.6162 58.9632C17.5258 58.7505 17.3982 58.575 17.2334 58.4368C17.0685 58.2986 16.8771 58.1975 16.6644 58.1284C16.4464 58.0593 16.2338 58.038 16.0211 58.0646C15.8084 58.0912 15.6064 58.1656 15.4203 58.2879C15.2342 58.4102 15.0587 58.5857 14.8992 58.8196C14.7397 59.0536 14.6068 59.3354 14.5005 59.6756H14.4951Z" fill="white"/>
<path d="M19.7164 58.24L20.716 58.3835L22.4334 61.9033C22.5291 62.1001 22.6142 62.2968 22.6939 62.4935C22.7737 62.6849 22.8322 62.8444 22.8747 62.9667C22.9172 62.5467 22.9598 62.1267 23.0182 61.7066C23.0767 61.2866 23.1352 60.8665 23.199 60.4518L23.4383 58.7717L24.4804 58.9206L23.6669 64.6362L22.6673 64.4927L21.0244 61.159C20.9127 60.9357 20.8117 60.7017 20.7213 60.4571C20.631 60.2179 20.5618 60.0212 20.514 59.8723C20.4608 60.3189 20.4183 60.7549 20.3598 61.1802C20.3013 61.6003 20.2428 62.0309 20.179 62.4616L19.9451 64.1045L18.903 63.9557L19.7164 58.24Z" fill="white"/>
<path d="M29.3985 58.7186C29.7441 58.6973 30.0578 58.7027 30.3396 58.7399C30.6214 58.7771 30.8766 58.8409 31.1106 58.9366L30.9245 59.7395C30.7065 59.6491 30.4779 59.5906 30.2492 59.5587C30.0206 59.5268 29.792 59.5215 29.558 59.5321C29.3028 59.5481 29.0636 59.6012 28.8403 59.6969C28.6169 59.7926 28.4255 59.9309 28.2607 60.117C28.0959 60.3031 27.9736 60.5317 27.8938 60.8135C27.8088 61.09 27.7822 61.4249 27.8088 61.8131C27.8513 62.5043 28.0427 63.02 28.3724 63.3656C28.702 63.7112 29.154 63.8654 29.7282 63.8282C30.0897 63.8069 30.3662 63.7484 30.5629 63.6527L30.4726 62.2278L29.4783 62.2916L29.4251 61.4515L31.4828 61.3186L31.6689 64.1897C31.4296 64.3067 31.1584 64.413 30.8554 64.4928C30.547 64.5779 30.1961 64.631 29.792 64.6576C29.3773 64.6842 28.9838 64.647 28.6116 64.5406C28.2394 64.4343 27.9151 64.2695 27.628 64.0355C27.3462 63.8016 27.1123 63.5092 26.9368 63.1476C26.7613 62.7914 26.655 62.366 26.6284 61.8875C26.5965 61.4037 26.6444 60.973 26.7773 60.5902C26.9049 60.2073 27.0963 59.883 27.3409 59.6119C27.5908 59.3407 27.8938 59.1333 28.2448 58.9791C28.601 58.8303 28.9891 58.7399 29.4092 58.7133L29.3985 58.7186Z" fill="white"/>
<path d="M31.839 58.6442L33.2214 58.3092L34.7846 60.8932C34.9228 61.1165 35.0504 61.3399 35.178 61.5685C35.3056 61.7918 35.4226 62.0151 35.5289 62.2331L35.5661 62.2225C35.5661 62.1161 35.5661 61.9992 35.5661 61.8662C35.5661 61.7386 35.5715 61.6057 35.5768 61.4675C35.5768 61.3292 35.5874 61.1963 35.5874 61.0634C35.5874 60.9305 35.598 60.8082 35.6087 60.6912L35.8001 57.6871L37.1825 57.3522L38.9796 62.8552L37.9375 63.1051C37.7408 62.5043 37.5547 61.9034 37.3686 61.308C37.1825 60.7071 37.0123 60.1063 36.8528 59.4949L36.6136 58.6176H36.587C36.587 58.9951 36.5764 59.3779 36.5604 59.7714C36.5498 60.1648 36.5285 60.521 36.5019 60.8507L36.3105 63.4985L35.4279 63.7112L34.0349 61.4462C33.7956 61.0634 33.5936 60.7071 33.4181 60.3828C33.2427 60.0585 33.0885 59.7661 32.9555 59.5002C33.0353 59.9681 33.1363 60.4572 33.232 60.9677C33.3277 61.4781 33.4128 61.9513 33.4872 62.3873L33.7956 64.1046L32.7694 64.3492L31.8443 58.6335L31.839 58.6442Z" fill="white"/>
<path d="M40.1067 55.9964C40.4736 55.8316 40.8405 55.7412 41.2073 55.72C41.5742 55.6987 41.9198 55.7572 42.2495 55.8901C42.5791 56.023 42.8822 56.2251 43.1587 56.5069C43.4351 56.7887 43.6744 57.1502 43.8711 57.5862C44.0625 58.0169 44.1689 58.4263 44.1848 58.8197C44.2008 59.2132 44.1476 59.5747 44.02 59.9097C43.8924 60.2447 43.6957 60.5424 43.4351 60.8082C43.1746 61.0741 42.8609 61.2868 42.494 61.4463C42.1272 61.6111 41.7603 61.7015 41.3934 61.7228C41.0266 61.744 40.681 61.6909 40.3566 61.5632C40.027 61.4356 39.7239 61.2283 39.4474 60.9518C39.171 60.67 38.9317 60.3085 38.735 59.8725C38.5436 59.4418 38.4372 59.0324 38.4213 58.6336C38.4 58.2402 38.4585 57.8733 38.5808 57.533C38.7084 57.1981 38.8998 56.895 39.1603 56.6345C39.4209 56.3739 39.7346 56.1559 40.1014 55.9911L40.1067 55.9964ZM39.8249 59.3939C39.9738 59.7236 40.1386 59.9894 40.3247 60.1968C40.5108 60.4042 40.7076 60.553 40.9149 60.6541C41.1223 60.7498 41.335 60.7976 41.5476 60.7976C41.7656 60.7976 41.973 60.7498 42.1803 60.6541C42.3877 60.5637 42.5632 60.4361 42.7067 60.2819C42.8503 60.1224 42.9513 59.9363 43.0151 59.7183C43.0736 59.5003 43.0895 59.2557 43.0576 58.9845C43.0257 58.7134 42.9353 58.4103 42.7918 58.0807C42.6429 57.7457 42.4728 57.4745 42.2867 57.2619C42.1006 57.0492 41.9039 56.895 41.6965 56.7993C41.4891 56.7036 41.2765 56.6557 41.0638 56.6611C40.8511 56.6664 40.6384 56.7142 40.4311 56.8046C40.2237 56.895 40.0483 57.0226 39.91 57.1821C39.7665 57.3416 39.6654 57.533 39.607 57.751C39.5485 57.969 39.5325 58.2189 39.5697 58.4954C39.6016 58.7772 39.692 59.0749 39.8356 59.3993L39.8249 59.3939Z" fill="white"/>
<path d="M26.7986 25.5731L26.4583 25.2488C26.3254 25.1212 23.1565 22.0374 23.1565 18.1454C23.1565 14.2534 26.3201 11.1749 26.4583 11.042L26.7986 10.7177L27.1389 11.042C27.2718 11.1696 30.4407 14.2534 30.4407 18.1454C30.4407 22.0374 27.2771 25.1158 27.1389 25.2488L26.7986 25.5731ZM26.7986 12.116C26.0117 12.9986 24.1401 15.3965 24.1401 18.1507C24.1401 20.9049 26.0117 23.3028 26.7986 24.1854C27.5855 23.3028 29.457 20.9049 29.457 18.1507C29.457 15.3965 27.5855 12.9986 26.7986 12.116Z" fill="white"/>
<path d="M26.7985 41.2368C26.5273 41.2368 26.3093 41.0188 26.3093 40.7477V19.3737C26.3093 19.1025 26.5273 18.8845 26.7985 18.8845C27.0696 18.8845 27.2876 19.1025 27.2876 19.3737V40.7477C27.2876 41.0188 27.0696 41.2368 26.7985 41.2368Z" fill="white"/>
<path d="M30.5523 31.0867L30.4619 30.6242C30.4247 30.4381 29.6271 26.0941 31.8762 22.9199C34.1253 19.7458 38.4904 19.0652 38.6765 19.0386L39.1444 18.9695L39.2348 19.4321C39.272 19.6181 40.0696 23.9621 37.8205 27.1363C35.5715 30.3105 31.2063 30.991 31.0202 31.0176L30.5523 31.0867ZM38.3416 20.1073C37.1878 20.3731 34.2741 21.2451 32.6844 23.4889C31.0893 25.7432 31.2329 28.7739 31.3658 29.9489C32.5195 29.6831 35.4332 28.8111 37.023 26.5673C38.618 24.313 38.4745 21.2823 38.3416 20.1073Z" fill="white"/>
<path d="M26.772 36.9088C26.6709 36.9088 26.5752 36.8769 26.4848 36.8184C26.2668 36.6589 26.2137 36.3558 26.3732 36.1325L33.6839 25.8975C33.8434 25.6742 34.1465 25.6263 34.3698 25.7858C34.5878 25.9453 34.641 26.2484 34.4815 26.4717L27.1707 36.7068C27.075 36.8397 26.9261 36.9141 26.772 36.9141V36.9088Z" fill="white"/>
<path d="M23.0182 31.0867L22.5503 31.0176C22.3642 30.991 17.999 30.3105 15.75 27.1363C13.5009 23.9621 14.2985 19.6181 14.3357 19.4321L14.4261 18.9695L14.894 19.0386C15.0801 19.0652 19.4452 19.7458 21.6943 22.9199C23.9433 26.0941 23.1458 30.4381 23.1086 30.6242L23.0182 31.0867ZM15.2342 20.1073C15.1066 21.2823 14.9631 24.3183 16.5528 26.5673C18.1479 28.8111 21.0563 29.6831 22.21 29.9489C22.3376 28.7739 22.4812 25.7379 20.8914 23.4889C19.2964 21.2451 16.388 20.3731 15.2342 20.1073Z" fill="white"/>
<path d="M26.7985 36.9088C26.6443 36.9088 26.4955 36.8397 26.3998 36.7015L19.089 26.4664C18.9295 26.2484 18.9827 25.94 19.2007 25.7805C19.424 25.621 19.727 25.6742 19.8865 25.8922L27.1973 36.1272C27.3568 36.3452 27.3036 36.6536 27.0856 36.8131C27.0006 36.8769 26.8995 36.9035 26.7985 36.9035V36.9088Z" fill="white"/>
</svg>
