<svg width="58" height="65" viewBox="0 0 58 65" fill="none" xmlns="http://www.w3.org/2000/svg">
<path d="M28.2061 52.0577C13.861 52.0577 2.19043 40.3871 2.19043 26.0421C2.19043 11.697 13.861 0.0317383 28.2061 0.0317383C42.5511 0.0317383 54.2217 11.7024 54.2217 26.0474C54.2217 40.3924 42.5511 52.063 28.2061 52.063V52.0577ZM28.2061 1.01537C14.4034 1.01537 3.17406 12.2447 3.17406 26.0474C3.17406 39.8501 14.4034 51.0794 28.2061 51.0794C42.0088 51.0794 53.2381 39.8501 53.2381 26.0474C53.2381 12.2447 42.0088 1.01537 28.2061 1.01537Z" fill="white"/>
<path d="M4.1789 48.5114L5.58788 49.8618C5.82182 50.0852 6.00792 50.3191 6.14084 50.5584C6.27376 50.7976 6.35883 51.0369 6.39605 51.2761C6.42795 51.5154 6.40668 51.7494 6.33225 51.9727C6.25781 52.2013 6.11957 52.414 5.92816 52.616C5.70485 52.85 5.47091 53.0095 5.22633 53.0998C4.98175 53.1849 4.73186 53.2168 4.48196 53.1902C4.22675 53.1637 3.97686 53.0839 3.72696 52.9457C3.47707 52.8074 3.23781 52.632 3.00918 52.4086L2.48812 51.9089L1.0047 53.4561L0.196533 52.6851L4.18422 48.5114H4.1789ZM3.08362 51.2761L3.4558 51.6324C3.58872 51.76 3.72164 51.8663 3.85988 51.9514C3.99812 52.0418 4.13105 52.1003 4.26929 52.1269C4.40753 52.1588 4.54045 52.1481 4.67337 52.1109C4.80629 52.0684 4.93922 51.9833 5.06151 51.8504C5.17316 51.7334 5.25292 51.6058 5.29013 51.4782C5.32735 51.3506 5.33267 51.223 5.3114 51.0901C5.28482 50.9624 5.23696 50.8348 5.16253 50.7126C5.08809 50.5903 4.99239 50.4733 4.88073 50.367L4.39689 49.9044L3.08362 51.2761Z" fill="white"/>
<path d="M7.31059 51.4409L10.2562 53.6262L9.72979 54.3333L7.68278 52.818L6.81612 53.9877L8.67172 55.3648L8.15066 56.0613L6.29506 54.6842L5.29017 56.04L7.35844 57.5766L6.83207 58.2838L3.86523 56.0826L7.30528 51.4462L7.31059 51.4409Z" fill="white"/>
<path d="M12.1384 54.594C12.4361 54.7641 12.6913 54.9449 12.8987 55.1363C13.1113 55.3277 13.2868 55.5351 13.4304 55.7478L12.7817 56.3698C12.6222 56.1412 12.4627 55.9445 12.2979 55.7797C12.133 55.6148 11.9523 55.4766 11.7609 55.3703C11.4897 55.2161 11.2451 55.1523 11.0324 55.1789C10.8198 55.2054 10.6549 55.3118 10.5486 55.5032C10.4423 55.6893 10.4263 55.8647 10.4954 56.0349C10.5645 56.205 10.7134 56.4124 10.9367 56.657L11.3355 57.0929C11.6705 57.4651 11.8778 57.8373 11.9576 58.2042C12.0373 58.571 11.9842 58.922 11.7928 59.2569C11.6705 59.4749 11.5163 59.6504 11.3249 59.7833C11.1335 59.9162 10.9261 60.0066 10.6922 60.0491C10.4582 60.097 10.203 60.0864 9.92652 60.0332C9.65535 59.9747 9.36824 59.8684 9.07581 59.6982C8.7887 59.5334 8.52817 59.3473 8.28359 59.1399C8.04433 58.9326 7.83697 58.6933 7.65088 58.4328L8.29423 57.816C8.45905 58.0553 8.63451 58.268 8.8206 58.4488C9.00669 58.6295 9.21937 58.789 9.45863 58.922C9.74574 59.0868 10.001 59.1559 10.2243 59.1346C10.4476 59.1134 10.623 58.9964 10.74 58.7837C10.7825 58.7093 10.8091 58.6295 10.8251 58.5445C10.8357 58.4594 10.8251 58.369 10.7932 58.268C10.7613 58.167 10.7028 58.0606 10.623 57.9383C10.538 57.816 10.4263 57.6778 10.2774 57.5183L9.91588 57.1142C9.62345 56.7792 9.42141 56.4443 9.32039 56.1093C9.21937 55.7743 9.27785 55.4181 9.49053 55.0353C9.74042 54.594 10.0967 54.3228 10.5592 54.2271C11.0218 54.1314 11.5429 54.2484 12.1277 54.578L12.1384 54.594Z" fill="white"/>
<path d="M17.7317 57.263L17.3861 58.0924L15.8229 57.4438L13.962 61.9472L12.9305 61.5218L14.7915 57.0184L13.2655 56.3857L13.6058 55.5563L17.7317 57.263Z" fill="white"/>
<path d="M19.0237 57.5927L17.317 63.1063L16.2483 62.7767L17.955 57.2631L19.0237 57.5927Z" fill="white"/>
<path d="M21.4376 63.2765C21.7193 63.3349 21.9586 63.3562 22.1607 63.3509C22.3627 63.3403 22.5488 63.3137 22.7242 63.2605L22.788 64.1325C22.602 64.1803 22.3733 64.2122 22.1075 64.2176C21.8363 64.2229 21.5173 64.191 21.1451 64.1165C20.7357 64.0315 20.3742 63.8932 20.0498 63.6859C19.7255 63.4838 19.465 63.2339 19.2576 62.9309C19.0556 62.6331 18.9173 62.2875 18.8482 61.8941C18.7791 61.5006 18.7897 61.0753 18.8854 60.618C18.9758 60.1714 19.13 59.7779 19.3374 59.443C19.55 59.108 19.8053 58.8422 20.1136 58.6401C20.4167 58.4381 20.7623 58.3105 21.1451 58.2467C21.5279 58.1829 21.932 58.1935 22.3627 58.2839C22.7455 58.3636 23.0539 58.4593 23.2878 58.5763C23.5218 58.6933 23.7132 58.8103 23.8674 58.9379L23.4473 59.7141C23.2878 59.5865 23.1177 59.4802 22.9422 59.3898C22.7668 59.2994 22.5594 59.225 22.3095 59.1771C22.0596 59.124 21.8097 59.1133 21.5705 59.1452C21.3312 59.1771 21.1132 59.2569 20.9165 59.3845C20.7198 59.5174 20.5443 59.7035 20.3901 59.9428C20.2412 60.182 20.1243 60.4904 20.0498 60.8573C19.9754 61.2188 19.9594 61.5378 20.002 61.8143C20.0445 62.0961 20.1296 62.3354 20.2572 62.5321C20.3848 62.7341 20.5496 62.8936 20.7517 63.0159C20.9537 63.1382 21.1823 63.2233 21.4322 63.2765H21.4376Z" fill="white"/>
<path d="M25.3987 58.773L24.8139 64.5153L23.7026 64.4036L24.2875 58.6614L25.3987 58.773Z" fill="white"/>
<path d="M28.0199 58.8899C28.4506 58.8846 28.8493 58.9325 29.2109 59.0441C29.5724 59.1558 29.8861 59.3259 30.152 59.5492C30.4178 59.7779 30.6199 60.065 30.7687 60.4052C30.9176 60.7455 30.9974 61.1496 31.0027 61.6069C31.0133 62.1386 30.9335 62.5958 30.7687 62.9786C30.6039 63.3614 30.3753 63.6805 30.0882 63.925C29.801 64.1696 29.4608 64.3557 29.0726 64.4727C28.6845 64.5897 28.2751 64.6535 27.8338 64.6641L26.1377 64.6907L26.042 58.9218L28.0092 58.8899H28.0199ZM27.2489 63.7974H27.7434C28.0092 63.7868 28.2751 63.7496 28.525 63.6805C28.7749 63.6113 28.9982 63.4997 29.1949 63.3349C29.3863 63.1754 29.5405 62.952 29.6575 62.6756C29.7745 62.3991 29.8276 62.0482 29.817 61.6281C29.8064 61.0167 29.6256 60.5541 29.2747 60.2351C28.9238 59.9161 28.4559 59.7619 27.871 59.7725L27.1851 59.7832L27.2489 63.7974Z" fill="white"/>
<path d="M31.2739 58.789L34.9001 58.2679L35.0277 59.1399L32.5074 59.5015L32.7148 60.9423L35.0011 60.6127L35.1234 61.474L32.8371 61.8037L33.0764 63.4732L35.6232 63.1063L35.7508 63.9783L32.098 64.5047L31.2739 58.789Z" fill="white"/>
<path d="M36.8992 57.6299C37.2289 57.5395 37.5372 57.4863 37.819 57.4757C38.1061 57.4651 38.372 57.4863 38.6272 57.5342L38.6059 58.4327C38.3348 58.3796 38.0796 58.353 37.8456 58.3583C37.6117 58.3583 37.3884 58.3902 37.1757 58.4487C36.8726 58.5285 36.6599 58.6561 36.5217 58.8262C36.3888 58.9963 36.3516 59.1878 36.4047 59.4004C36.4632 59.6078 36.5749 59.746 36.7397 59.8151C36.9098 59.8843 37.1597 59.9321 37.4947 59.9481L38.0796 59.98C38.5794 60.0066 38.9888 60.1235 39.3078 60.3309C39.6215 60.5382 39.8341 60.8254 39.9352 61.1975C39.999 61.4368 40.0149 61.6707 39.9724 61.8994C39.9352 62.1227 39.8448 62.3354 39.7065 62.5374C39.5736 62.7341 39.3875 62.9096 39.1536 63.0638C38.9196 63.218 38.6378 63.3349 38.3188 63.4253C37.9998 63.5104 37.6808 63.5636 37.3671 63.5848C37.0481 63.6061 36.7344 63.5848 36.4207 63.5263L36.442 62.6384C36.7291 62.6916 37.0002 62.7182 37.2608 62.7182C37.5213 62.7182 37.7818 62.681 38.0477 62.6065C38.3667 62.5215 38.5953 62.3885 38.7442 62.2184C38.8877 62.0429 38.9303 61.8409 38.8665 61.6069C38.8452 61.5272 38.808 61.4474 38.7548 61.3783C38.707 61.3092 38.6325 61.2507 38.5421 61.2029C38.4517 61.155 38.3348 61.1178 38.1912 61.0912C38.0477 61.0646 37.8669 61.0434 37.6489 61.0327L37.1066 61.0008C36.6599 60.9689 36.2824 60.8732 35.9741 60.7084C35.6657 60.5436 35.453 60.2458 35.336 59.8258C35.2031 59.3366 35.2669 58.8953 35.5274 58.5019C35.788 58.1084 36.2399 57.8213 36.8886 57.6458L36.8992 57.6299Z" fill="white"/>
<path d="M44.0504 54.8864L44.4279 55.6786L42.2107 56.7313L42.9125 58.2147L44.9489 57.2471L45.3211 58.034L43.2847 59.0016L44.3056 61.155L43.2954 61.6335L40.823 56.4176L44.0504 54.8864Z" fill="white"/>
<path d="M44.2365 54.7747L45.9911 53.6582C46.2569 53.488 46.5175 53.3764 46.7674 53.3285C47.0173 53.2754 47.2512 53.2754 47.4745 53.3232C47.6978 53.3711 47.8999 53.4615 48.086 53.5997C48.2721 53.7379 48.4316 53.9081 48.5645 54.1208C48.6868 54.3175 48.7718 54.5089 48.8037 54.695C48.841 54.8811 48.8463 55.0618 48.825 55.232C48.8037 55.4021 48.7612 55.567 48.6974 55.7105C48.6336 55.8594 48.5592 55.987 48.4794 56.104L50.9837 57.3215L49.9097 58.0074L47.7297 56.8217L47.0864 57.2311L48.2561 59.0602L47.3363 59.645L44.2312 54.78L44.2365 54.7747ZM46.6238 56.4921L47.097 56.189C47.3894 56.0029 47.5968 55.7849 47.7085 55.5457C47.8201 55.3011 47.7882 55.0406 47.6074 54.7588C47.4426 54.5036 47.2406 54.3547 47.0066 54.3175C46.7674 54.2803 46.5015 54.3547 46.2091 54.5408L45.6242 54.913L46.6291 56.4868L46.6238 56.4921Z" fill="white"/>
<path d="M47.9264 52.3609L50.739 50.0161L51.3026 50.6914L49.346 52.3237L50.2765 53.4402L52.0523 51.9621L52.6106 52.632L50.8347 54.1101L51.9141 55.4075L53.892 53.7592L54.4556 54.4345L51.6216 56.8005L47.9264 52.3662V52.3609Z" fill="white"/>
<path d="M50.973 49.7715L53.4879 47.1024L54.126 47.7032L52.382 49.5588L53.4454 50.5584L55.0298 48.8783L55.6625 49.4738L54.0781 51.1539L55.3063 52.3077L57.0715 50.4308L57.7095 51.0316L55.1787 53.722L50.973 49.7662V49.7715Z" fill="white"/>
<path d="M21.9162 30.822C20.6933 33.4485 18.0773 35.5966 15.5518 36.0379C14.7011 36.1867 13.5101 36.1921 12.67 35.352C11.8353 34.5172 11.8353 33.3262 11.9842 32.4702C12.4308 29.9447 14.5735 27.3288 17.2001 26.1059L22.5595 23.6123C22.6286 23.2028 22.7084 22.8094 22.7934 22.4213L16.7907 25.218C13.8929 26.5685 11.5163 29.4821 11.0218 32.3001C10.7506 33.826 11.0909 35.1606 11.9789 36.0432C12.6647 36.7291 13.6218 37.0906 14.7277 37.0906C15.0467 37.0906 15.3817 37.0587 15.722 37.0002C18.2953 36.543 20.9432 34.5279 22.4159 31.9758C22.3415 31.3749 22.283 30.7582 22.2405 30.1202L21.9162 30.8167V30.822Z" fill="white"/>
<path d="M45.385 32.3054C44.8852 29.4821 42.5139 26.5737 39.6162 25.2232L33.6453 22.4425C33.7303 22.8306 33.8101 23.2241 33.8739 23.6335L39.2014 26.1112C41.828 27.3341 43.9707 29.95 44.4173 32.4755C44.5662 33.3262 44.5715 34.5172 43.7368 35.3573C42.902 36.192 41.711 36.192 40.855 36.0378C38.3295 35.5912 35.7135 33.4485 34.4907 30.822L34.1929 30.1839C34.1557 30.8113 34.0972 31.4281 34.0174 32.0236C35.4902 34.5544 38.1221 36.5536 40.6849 37.0055C41.0251 37.064 41.3601 37.0959 41.6791 37.0959C42.785 37.0959 43.7421 36.7397 44.428 36.0485C45.3159 35.1606 45.6562 33.8313 45.385 32.3054Z" fill="white"/>
<path d="M22.5648 23.6122C22.3202 25.0637 22.1873 26.6428 22.1873 28.307C22.1873 28.9238 22.2085 29.5299 22.2404 30.1201L23.1709 28.1262C23.1815 26.3398 23.3623 24.633 23.6707 23.0964L22.5701 23.6122H22.5648Z" fill="white"/>
<path d="M33.1933 30.3594C32.7786 36.0485 30.6677 40.5306 28.2166 40.5306C25.7655 40.5306 23.6441 36.0166 23.24 30.3009L22.8093 31.2314C22.6924 31.4866 22.5595 31.7312 22.4159 31.9757C23.123 37.5372 25.4199 41.509 28.2166 41.509C31.0133 41.509 33.2996 37.5585 34.0121 32.0183C33.8632 31.7631 33.7196 31.4972 33.5974 31.2314L33.1933 30.3594Z" fill="white"/>
<path d="M33.2678 28.1954L34.1929 30.1787C34.2301 29.5672 34.2514 28.9451 34.2514 28.3071C34.2514 26.6535 34.1185 25.0744 33.8739 23.6282L32.7733 23.1178C33.0817 24.6703 33.2625 26.3983 33.2678 28.2008V28.1954Z" fill="white"/>
<path d="M23.9419 21.9107C24.8458 18.4441 26.4408 16.0887 28.2167 16.0887C29.9925 16.0887 31.5929 18.4548 32.4968 21.9267C32.5553 21.948 32.6085 21.9639 32.6669 21.9905L33.6453 22.4424C32.6723 18.0613 30.6359 15.1051 28.222 15.1051C25.8081 15.1051 23.7771 18.0507 22.8041 22.4265L23.7452 21.9905C23.8143 21.9586 23.8781 21.9373 23.9472 21.9161L23.9419 21.9107Z" fill="white"/>
<path d="M23.6708 23.1018C23.7559 22.6924 23.8462 22.2936 23.9473 21.9108C23.8782 21.932 23.809 21.9586 23.7452 21.9852L22.8041 22.4212C22.7191 22.8093 22.6393 23.2028 22.5702 23.6122L23.6708 23.0964V23.1018Z" fill="white"/>
<path d="M23.24 30.3062C23.1922 29.6522 23.1656 28.9876 23.1656 28.3124C23.1656 28.2539 23.1656 28.1954 23.1656 28.1316L22.2351 30.1254C22.2723 30.7581 22.3308 31.3802 22.4106 31.981C22.5488 31.7365 22.687 31.4919 22.804 31.2367L23.2347 30.3062H23.24Z" fill="white"/>
<path d="M33.2678 28.1954C33.2678 28.2327 33.2678 28.2699 33.2678 28.3071C33.2678 29.0036 33.2412 29.6895 33.1934 30.3594L33.5974 31.2314C33.7197 31.4972 33.8633 31.7631 34.0122 32.0183C34.0866 31.4228 34.1504 30.806 34.1876 30.1786L33.2625 28.1954H33.2678Z" fill="white"/>
<path d="M32.4968 21.9215C32.5978 22.3096 32.6882 22.7031 32.7733 23.1178L33.8739 23.6282C33.8048 23.2188 33.7303 22.8254 33.6453 22.4372L32.667 21.9853C32.6138 21.9587 32.5553 21.9428 32.4968 21.9215Z" fill="white"/>
<path d="M33.7835 27.7701H22.5488V28.7538H33.7835V27.7701Z" fill="white"/>
<path d="M33.4539 31.5452H22.8201V32.5288H33.4539V31.5452Z" fill="white"/>
<path d="M32.3479 35.5168H23.8834V36.5005H32.3479V35.5168Z" fill="white"/>
<path d="M26.9193 16.3071C26.7704 16.3071 26.6216 16.238 26.5259 16.1104L23.0061 11.3677C22.8466 11.1497 22.8891 10.8413 23.1071 10.6818C23.3251 10.5223 23.6335 10.5649 23.793 10.7829L27.3128 15.5255C27.4723 15.7435 27.4297 16.0519 27.2117 16.2114C27.1267 16.2752 27.0203 16.3071 26.9193 16.3071Z" fill="white"/>
<path d="M29.5192 16.3069C29.4182 16.3069 29.3172 16.275 29.2268 16.2112C29.0088 16.0516 28.961 15.7433 29.1258 15.5253L32.6456 10.7826C32.8051 10.5646 33.1135 10.5167 33.3315 10.6816C33.5494 10.8411 33.5973 11.1495 33.4325 11.3674L29.9127 16.1101C29.817 16.2377 29.6681 16.3069 29.5192 16.3069Z" fill="white"/>
</svg>
