<svg width="53" height="65" viewBox="0 0 53 65" fill="none" xmlns="http://www.w3.org/2000/svg">
<path d="M26.7252 52.0393C12.3802 52.0393 0.709595 40.374 0.709595 26.0289C0.709595 11.6839 12.3802 0.0133057 26.7252 0.0133057C41.0703 0.0133057 52.7409 11.6839 52.7409 26.0289C52.7409 40.374 41.0703 52.0446 26.7252 52.0446V52.0393ZM26.7252 0.996934C12.9225 0.996934 1.69322 12.2263 1.69322 26.0289C1.69322 39.8316 12.9225 51.061 26.7252 51.061C40.5279 51.061 51.7573 39.8316 51.7573 26.0289C51.7573 12.2263 40.5279 0.996934 26.7252 0.996934Z" fill="white"/>
<path d="M7.35038 52.5495L8.26489 53.1928L6.72299 59.1691L5.75531 58.4885L6.15408 57.0317L4.39418 55.7875L3.15534 56.6488L2.20361 55.9789L7.34507 52.5442L7.35038 52.5495ZM5.0907 55.2664L6.39866 56.1916L6.64323 55.3196C6.72299 55.0591 6.79211 54.8198 6.86123 54.5859C6.93035 54.3573 7.0101 54.1127 7.10049 53.8468C6.87186 53.9904 6.6645 54.1446 6.46246 54.2881C6.26042 54.4317 6.04774 54.5859 5.82975 54.7401L5.0907 55.2611V55.2664Z" fill="white"/>
<path d="M9.95572 54.3732L10.8596 54.8199L11.3807 58.7012C11.4072 58.9192 11.4285 59.1319 11.4391 59.3392C11.4498 59.5466 11.4604 59.7167 11.4604 59.8497C11.6305 59.4615 11.806 59.0787 11.9921 58.6959C12.1835 58.3184 12.3696 57.9356 12.5557 57.5634L13.3107 56.0481L14.2518 56.5159L11.6784 61.684L10.7745 61.232L10.2641 57.5474C10.2322 57.2975 10.2109 57.0476 10.195 56.7871C10.1844 56.5319 10.179 56.3245 10.1843 56.165C9.99294 56.5744 9.81217 56.9732 9.62607 57.356C9.43998 57.7388 9.24857 58.1217 9.05185 58.5204L8.3128 60.0038L7.3717 59.536L9.94509 54.3679L9.95572 54.3732Z" fill="white"/>
<path d="M18.452 57.8982L18.1702 58.7489L16.5592 58.2119L15.0173 62.8377L13.9593 62.4867L15.5012 57.861L13.938 57.34L14.2198 56.4893L18.452 57.8982Z" fill="white"/>
<path d="M19.776 58.1377L18.4628 63.7576L17.3728 63.5024L18.6861 57.8824L19.776 58.1377Z" fill="white"/>
<path d="M22.9501 58.563C23.3489 58.6109 23.7158 58.7172 24.0401 58.8873C24.3644 59.0575 24.6356 59.2808 24.8536 59.5626C25.0716 59.8444 25.2258 60.174 25.3268 60.5568C25.4225 60.9397 25.4438 61.3703 25.3906 61.8489C25.3374 62.3167 25.2205 62.7208 25.0344 63.0717C24.8483 63.4227 24.6197 63.7045 24.3379 63.9278C24.0561 64.1511 23.737 64.3106 23.3808 64.401C23.0246 64.4967 22.6418 64.5179 22.243 64.4754C21.8442 64.4276 21.4774 64.3212 21.153 64.1564C20.8287 63.9916 20.5575 63.7683 20.3395 63.4918C20.1215 63.2153 19.9674 62.8857 19.8663 62.5028C19.7706 62.12 19.7494 61.6893 19.8025 61.2108C19.8557 60.7429 19.978 60.3335 20.1588 59.9826C20.3449 59.6317 20.5788 59.3446 20.8553 59.116C21.1371 58.8873 21.4561 58.7278 21.8123 58.6374C22.1686 58.5417 22.5514 58.5205 22.9501 58.563ZM20.9776 61.3384C20.935 61.6947 20.9457 62.0084 20.9988 62.2795C21.052 62.5507 21.1477 62.7793 21.2753 62.9707C21.4029 63.1621 21.5624 63.311 21.7485 63.4173C21.9346 63.5237 22.142 63.5928 22.3653 63.6194C22.5886 63.646 22.8066 63.6247 23.0086 63.5662C23.2107 63.5024 23.3968 63.3961 23.5563 63.2366C23.7211 63.0824 23.854 62.875 23.9657 62.6251C24.0773 62.3752 24.1518 62.0668 24.1943 61.7106C24.2368 61.3491 24.2315 61.0247 24.1783 60.7483C24.1252 60.4718 24.0348 60.2378 23.9019 60.0464C23.7743 59.855 23.6148 59.7115 23.4287 59.6051C23.2426 59.4988 23.0352 59.435 22.8119 59.4084C22.5886 59.3818 22.3706 59.4031 22.1686 59.4669C21.9665 59.5307 21.7804 59.6423 21.6209 59.8018C21.4561 59.956 21.3232 60.1634 21.2062 60.4239C21.0945 60.6791 21.0148 60.9875 20.9776 61.3384Z" fill="white"/>
<path d="M26.4753 58.8926L27.8099 60.9503L29.0274 58.8129L30.2982 58.7756L28.5064 61.6734L30.564 64.5445L29.2454 64.587L27.8045 62.4496L26.5232 64.6721L25.2577 64.7093L27.0655 61.7212L25.1674 58.9351L26.47 58.8979L26.4753 58.8926Z" fill="white"/>
<path d="M31.6753 58.5044L32.4409 64.2254L31.335 64.3743L30.5693 58.6533L31.6753 58.5044Z" fill="white"/>
<path d="M34.2859 57.994C34.7059 57.893 35.1047 57.8504 35.4822 57.877C35.8597 57.9036 36.1999 57.9993 36.5083 58.1641C36.8167 58.3289 37.0826 58.5576 37.3005 58.8606C37.5239 59.1637 37.6887 59.5359 37.8003 59.9772C37.9279 60.4929 37.9545 60.9555 37.8801 61.3702C37.8057 61.7796 37.6568 62.1412 37.4282 62.4442C37.1995 62.7473 36.9124 63.0025 36.5615 63.2046C36.2106 63.4066 35.8224 63.5608 35.3971 63.6671L33.7489 64.0712L32.3665 58.4672L34.2805 57.994H34.2859ZM34.6315 62.9493L35.11 62.8324C35.3705 62.7686 35.6151 62.6729 35.849 62.5506C36.0777 62.4283 36.2691 62.2635 36.4233 62.0667C36.5721 61.8647 36.6732 61.6201 36.7263 61.3224C36.7742 61.0246 36.7529 60.6737 36.6519 60.2643C36.5083 59.6688 36.2265 59.2594 35.8118 59.0255C35.3971 58.7915 34.9079 58.749 34.339 58.8872L33.6744 59.052L34.6368 62.9493H34.6315Z" fill="white"/>
<path d="M38.6511 56.6435L39.6826 56.2181L43.8989 60.7322L42.8036 61.1788L41.788 60.0569L39.7942 60.8704L39.858 62.3804L38.7787 62.8217L38.6458 56.6382L38.6511 56.6435ZM39.7304 59.9985L41.2138 59.3923L40.613 58.7171C40.4376 58.5097 40.2727 58.3183 40.1132 58.1375C39.959 57.9568 39.7889 57.76 39.6134 57.5367C39.6134 57.8079 39.6294 58.0631 39.6453 58.313C39.6613 58.5629 39.6772 58.8181 39.6879 59.0946L39.7304 59.9985Z" fill="white"/>
<path d="M41.5807 55.4207L42.442 54.8996L45.999 56.5425C46.2011 56.6382 46.3872 56.734 46.5733 56.835C46.754 56.936 46.9029 57.0211 47.0146 57.0902C46.7806 56.7393 46.5467 56.3883 46.3287 56.0215C46.1107 55.6599 45.8927 55.2931 45.6747 54.9368L44.7974 53.4853L45.7013 52.943L48.6788 57.8877L47.8174 58.4088L44.4359 56.8616C44.2072 56.7552 43.9839 56.6382 43.7606 56.5106C43.5373 56.383 43.3619 56.2767 43.2289 56.1863C43.4735 56.5691 43.7128 56.936 43.9361 57.2975C44.1594 57.6591 44.3827 58.0313 44.6113 58.4035L45.4673 59.8231L44.5635 60.3654L41.586 55.4207H41.5807Z" fill="white"/>
<path d="M49.1253 50.1409L49.6889 50.8375L48.3703 51.9062L51.4382 55.6918L50.5715 56.3936L47.5037 52.608L46.2223 53.6448L45.6587 52.9483L49.1253 50.1356V50.1409Z" fill="white"/>
<path d="M26.7253 29.6657C24.7208 29.6657 23.0885 28.0335 23.0885 26.029C23.0885 24.0245 24.7208 22.3922 26.7253 22.3922C28.7297 22.3922 30.362 24.0245 30.362 26.029C30.362 28.0335 28.7297 29.6657 26.7253 29.6657ZM26.7253 23.3705C25.2631 23.3705 24.0721 24.5615 24.0721 26.0237C24.0721 27.4858 25.2631 28.6768 26.7253 28.6768C28.1874 28.6768 29.3784 27.4858 29.3784 26.0237C29.3784 24.5615 28.1874 23.3705 26.7253 23.3705Z" fill="white"/>
<path d="M38.0556 22.5357C37.5239 20.8077 36.6041 19.2551 35.4025 17.9631C35.11 18.1067 34.8389 18.2981 34.6102 18.5427C34.6102 18.5427 34.6049 18.5533 34.5996 18.5533C35.764 19.7815 36.6466 21.2703 37.1411 22.9344C37.4707 22.86 37.7738 22.7271 38.0503 22.5357H38.0556Z" fill="white"/>
<path d="M33.8978 17.8729C34.1317 17.623 34.3922 17.4103 34.6794 17.2402C33.4458 16.1236 31.9784 15.2623 30.362 14.7412C30.3567 15.0762 30.3035 15.4111 30.2025 15.7302C31.5796 16.198 32.8291 16.9318 33.8978 17.8729Z" fill="white"/>
<path d="M24.1944 36.5936C24.0934 36.9179 24.0562 37.2529 24.0828 37.5825C24.9335 37.7739 25.8161 37.8803 26.7253 37.8803C27.6345 37.8803 28.5171 37.7739 29.3678 37.5772C29.3944 37.2422 29.3518 36.9073 29.2561 36.5883C28.4426 36.785 27.5972 36.8966 26.7253 36.8966C25.8533 36.8966 25.0079 36.785 24.1944 36.5883V36.5936Z" fill="white"/>
<path d="M34.6049 33.4992C34.8335 33.7491 35.1046 33.9458 35.4024 34.0947C36.604 32.8026 37.5185 31.2448 38.0502 29.5221C37.7737 29.3307 37.46 29.1978 37.141 29.1287C36.6466 30.7875 35.7639 32.2816 34.6049 33.5045V33.4992Z" fill="white"/>
<path d="M37.5983 26.0289C37.5983 26.7626 37.5239 27.4751 37.3856 28.1716C37.71 28.2461 38.0236 28.3684 38.3161 28.5279C38.4915 27.725 38.5819 26.8902 38.5819 26.0289C38.5819 25.1676 38.4862 24.3381 38.3161 23.5353C38.0236 23.6948 37.7153 23.8171 37.3856 23.8915C37.5239 24.5827 37.5983 25.3005 37.5983 26.0289Z" fill="white"/>
<path d="M33.8977 34.1797C32.829 35.1208 31.5795 35.8545 30.1971 36.3224C30.2928 36.6414 30.346 36.9764 30.3567 37.3113C31.973 36.7903 33.4405 35.9289 34.674 34.8124C34.3869 34.6369 34.1263 34.4243 33.8924 34.1797H33.8977Z" fill="white"/>
<path d="M15.8468 26.0289C15.8468 25.2952 15.9212 24.5827 16.0595 23.8915C15.7298 23.8171 15.4214 23.6948 15.129 23.5353C14.9535 24.3381 14.8632 25.1729 14.8632 26.0289C14.8632 26.8849 14.9589 27.7197 15.129 28.5279C15.4161 28.3684 15.7298 28.2461 16.0595 28.1716C15.9212 27.4804 15.8468 26.7626 15.8468 26.0342V26.0289Z" fill="white"/>
<path d="M29.2507 15.4589C29.3517 15.1346 29.389 14.7996 29.3624 14.47C28.5117 14.2786 27.6291 14.1722 26.7199 14.1722C25.8107 14.1722 24.9281 14.2786 24.0774 14.4753C24.0508 14.8103 24.0933 15.1452 24.189 15.4643C25.0025 15.2675 25.8479 15.1559 26.7199 15.1559C27.5918 15.1559 28.4372 15.2675 29.2507 15.4643V15.4589Z" fill="white"/>
<path d="M19.5527 34.1797C19.3188 34.4296 19.0582 34.6423 18.7711 34.8124C20.0046 35.9289 21.4721 36.7903 23.0938 37.3113C23.0991 36.9817 23.1523 36.6467 23.248 36.3224C21.8709 35.8545 20.6214 35.1208 19.5527 34.1797Z" fill="white"/>
<path d="M18.0427 17.9631C16.841 19.2551 15.9265 20.8129 15.3895 22.5356C15.6607 22.7217 15.9638 22.86 16.2934 22.9344C16.2934 22.9344 16.2934 22.9344 16.2987 22.9344C16.7932 21.2702 17.6758 19.7815 18.8402 18.5533C18.6116 18.3034 18.3404 18.1066 18.0427 17.9578V17.9631Z" fill="white"/>
<path d="M15.3895 29.5221C15.9212 31.2447 16.841 32.8026 18.0427 34.0946C18.3351 33.951 18.6063 33.7596 18.8349 33.5151C18.8349 33.5151 18.8402 33.5044 18.8455 33.5044C17.6811 32.2762 16.7985 30.7875 16.304 29.1233C15.9691 29.1977 15.666 29.336 15.3948 29.5221H15.3895Z" fill="white"/>
<path d="M19.5473 17.8729C20.616 16.9318 21.8708 16.198 23.2479 15.7302C23.1522 15.4111 23.099 15.0762 23.0884 14.7412C21.4667 15.2623 19.9993 16.1236 18.7657 17.2402C19.0475 17.4103 19.3134 17.623 19.5473 17.8729Z" fill="white"/>
<path d="M24.3751 13.4279C24.8483 12.5293 25.7735 12.0136 26.7252 12.0136C27.1452 12.0136 27.5653 12.1146 27.9587 12.322C28.7935 12.7633 29.2933 13.5927 29.3571 14.47C29.692 14.5444 30.027 14.6348 30.3513 14.7412C30.3566 14.3583 30.3088 13.9702 30.1918 13.5927C29.9047 12.6623 29.2773 11.9019 28.416 11.45C26.6401 10.5142 24.4389 11.1948 23.5031 12.9653C23.2054 13.5289 23.0725 14.1404 23.0831 14.7412C23.4074 14.6348 23.7371 14.5498 24.0721 14.47C24.0986 14.1138 24.1943 13.7629 24.3698 13.4279H24.3751Z" fill="white"/>
<path d="M29.2507 15.4589C29.5751 15.5334 29.8888 15.6237 30.1971 15.7301C30.2982 15.4057 30.346 15.0761 30.3566 14.7411C30.0323 14.6348 29.6974 14.5444 29.3624 14.47C29.389 14.7996 29.3518 15.1346 29.2507 15.4589Z" fill="white"/>
<path d="M24.1944 15.4589C24.0933 15.1399 24.0561 14.8049 24.0827 14.47C23.7477 14.5444 23.4181 14.6348 23.0938 14.7411C23.0991 15.0761 23.1522 15.4111 23.2533 15.7301C23.5616 15.6237 23.8753 15.5387 24.1997 15.4589H24.1944Z" fill="white"/>
<path d="M14.6346 21.7594C13.8583 20.5205 14.2305 18.8776 15.4693 18.096C16.0701 17.7185 16.7826 17.5962 17.4738 17.7558C17.6705 17.8036 17.8619 17.8727 18.0374 17.9578C18.2714 17.7079 18.5106 17.4633 18.7658 17.2347C17.628 16.5488 16.1499 16.5063 14.9483 17.2613C13.2522 18.33 12.7364 20.579 13.8051 22.2751C14.1401 22.8068 14.5974 23.2322 15.1291 23.5246C15.2035 23.1896 15.2886 22.8547 15.3896 22.5303C15.0918 22.3283 14.8366 22.0678 14.6346 21.7541V21.7594Z" fill="white"/>
<path d="M18.0427 17.9631C18.3457 18.1067 18.6169 18.3087 18.8402 18.5586C19.0635 18.3194 19.3028 18.0961 19.5474 17.8781C19.3134 17.6282 19.0529 17.4155 18.7658 17.2454C18.5106 17.474 18.2713 17.7186 18.0374 17.9685L18.0427 17.9631Z" fill="white"/>
<path d="M16.2987 22.9345C16.2987 22.9345 16.2987 22.9345 16.2934 22.9345C15.9638 22.8601 15.6607 22.7219 15.3896 22.5358C15.2885 22.8601 15.2035 23.1951 15.129 23.53C15.4161 23.6895 15.7298 23.8118 16.0595 23.8863C16.1233 23.5619 16.2084 23.2482 16.2987 22.9345Z" fill="white"/>
<path d="M18.0427 34.0946C17.7184 34.2541 17.3568 34.3498 16.9846 34.3605C16.2615 34.3871 15.5969 34.1372 15.0812 33.6533C14.5601 33.1695 14.2624 32.5155 14.2305 31.8084C14.1933 30.8673 14.6611 30.0219 15.3896 29.5221C15.2885 29.1978 15.2035 28.8628 15.129 28.5278C13.9646 29.1712 13.1937 30.4313 13.2469 31.8456C13.2841 32.8186 13.6935 33.7118 14.4059 34.3764C15.0865 35.0038 15.9532 35.3441 16.873 35.3441C16.9208 35.3441 16.9687 35.3441 17.0165 35.3441C17.6439 35.3228 18.2447 35.1368 18.7658 34.8177C18.5106 34.5891 18.2713 34.3445 18.0374 34.0946H18.0427Z" fill="white"/>
<path d="M18.8402 33.4991C18.8402 33.4991 18.8349 33.5098 18.8296 33.5098C18.6009 33.7544 18.3298 33.9458 18.0374 34.0893C18.2713 34.3392 18.5106 34.5838 18.7658 34.8124C19.0476 34.6423 19.3134 34.4296 19.5474 34.1797C19.3028 33.9617 19.0635 33.7384 18.8402 33.4991Z" fill="white"/>
<path d="M16.3041 29.1232C16.2084 28.8095 16.1287 28.4905 16.0649 28.1715C15.7352 28.2459 15.4268 28.3736 15.1344 28.5277C15.2088 28.8627 15.2939 29.1977 15.3949 29.522C15.6661 29.3359 15.9745 29.1977 16.3041 29.1232Z" fill="white"/>
<path d="M29.07 38.63C28.3841 39.9221 26.7731 40.4218 25.4811 39.736C24.6463 39.2947 24.1466 38.4652 24.0828 37.5879C23.7478 37.5135 23.4181 37.4231 23.0885 37.3168C23.0619 38.646 23.7691 39.9433 25.0238 40.6079C25.5662 40.8951 26.1457 41.028 26.7146 41.028C28.0226 41.028 29.2827 40.3208 29.9367 39.0926C30.2344 38.529 30.3673 37.9176 30.3567 37.3168C30.0324 37.4231 29.7027 37.5135 29.3678 37.5879C29.3412 37.9442 29.2455 38.2951 29.07 38.63Z" fill="white"/>
<path d="M24.1944 36.5936C23.8753 36.5191 23.5563 36.4287 23.2479 36.3224C23.1469 36.6467 23.0991 36.9817 23.0938 37.3113C23.4181 37.4177 23.7477 37.5081 24.088 37.5825C24.0614 37.2528 24.0986 36.9179 24.1997 36.5936H24.1944Z" fill="white"/>
<path d="M29.256 36.5936C29.3571 36.9126 29.3943 37.2475 29.3677 37.5825C29.7027 37.5081 30.0323 37.4177 30.3566 37.3113C30.3513 36.9764 30.2982 36.6414 30.1971 36.3224C29.8888 36.4287 29.5751 36.5138 29.2507 36.5936H29.256Z" fill="white"/>
<path d="M39.64 29.7721C39.2997 29.2297 38.8371 28.8097 38.3161 28.5226C38.2417 28.8575 38.1566 29.1925 38.0556 29.5168C38.348 29.7189 38.6085 29.9741 38.8106 30.2931C39.1881 30.8939 39.3104 31.6064 39.1508 32.2976C38.9913 32.9888 38.5766 33.579 37.9758 33.9565C37.375 34.334 36.6678 34.4563 35.9713 34.2968C35.7746 34.2489 35.5832 34.1798 35.4077 34.0947C35.1738 34.3446 34.9292 34.5892 34.6793 34.8178C35.009 35.0198 35.3705 35.1687 35.7587 35.2538C36.0298 35.3176 36.301 35.3442 36.5721 35.3442C37.2474 35.3442 37.912 35.1528 38.5022 34.7859C40.1983 33.7172 40.714 31.4682 39.6453 29.7721H39.64Z" fill="white"/>
<path d="M37.1464 29.1234C37.4707 29.1979 37.7791 29.3308 38.0556 29.5169C38.1566 29.1925 38.2416 28.8576 38.3161 28.5226C38.0237 28.3631 37.71 28.2408 37.3856 28.1664C37.3218 28.4907 37.2367 28.8097 37.1464 29.1181V29.1234Z" fill="white"/>
<path d="M35.4078 34.0893C35.1047 33.9457 34.8335 33.7437 34.6102 33.4938C34.3816 33.733 34.1477 33.9617 33.9031 34.1743C34.1317 34.4242 34.3975 34.6369 34.6847 34.8071C34.9399 34.5784 35.1791 34.3338 35.4131 34.084L35.4078 34.0893Z" fill="white"/>
<path d="M35.4078 17.9632C35.7321 17.8037 36.0937 17.708 36.4659 17.6974C36.4978 17.6974 36.535 17.6974 36.5669 17.6974C37.2368 17.6974 37.8748 17.9473 38.3693 18.4045C38.8904 18.8884 39.1881 19.5423 39.22 20.2495C39.2466 20.9566 38.9967 21.6372 38.5129 22.1529C38.3746 22.3018 38.2204 22.4241 38.0609 22.5358C38.162 22.8601 38.247 23.195 38.3215 23.53C38.6564 23.3439 38.9648 23.11 39.236 22.8175C39.8953 22.1051 40.2409 21.1799 40.2036 20.2069C40.1664 19.234 39.757 18.3407 39.0446 17.6761C38.3321 17.0168 37.4123 16.6659 36.434 16.7084C35.8066 16.7297 35.2057 16.9158 34.6847 17.2348C34.9399 17.4634 35.1792 17.708 35.4131 17.9579L35.4078 17.9632Z" fill="white"/>
<path d="M34.6049 18.5534C34.6049 18.5534 34.6102 18.5428 34.6155 18.5428C34.8441 18.2982 35.11 18.1068 35.4077 17.9632C35.1738 17.7133 34.9345 17.4687 34.6793 17.2401C34.3975 17.4103 34.1316 17.6229 33.8977 17.8728C34.1423 18.0908 34.3815 18.3141 34.6049 18.5534Z" fill="white"/>
<path d="M37.1464 22.9345C37.2367 23.2482 37.3218 23.5672 37.3856 23.8863C37.71 23.8118 38.0237 23.6895 38.3161 23.53C38.2416 23.1951 38.1566 22.8601 38.0556 22.5358C37.7791 22.7272 37.4707 22.8601 37.1464 22.9345Z" fill="white"/>
</svg>
