<svg width="53" height="65" viewBox="0 0 53 65" fill="none" xmlns="http://www.w3.org/2000/svg">
<path d="M26.1809 52.0339C11.8359 52.0339 0.165283 40.3686 0.165283 26.0236C0.165283 11.6786 11.8359 0.00793457 26.1809 0.00793457C40.526 0.00793457 52.1966 11.6786 52.1966 26.0236C52.1966 40.3686 40.526 52.0392 26.1809 52.0392V52.0339ZM26.1809 0.991563C12.3782 0.991563 1.14891 12.2209 1.14891 26.0236C1.14891 39.8263 12.3782 51.0556 26.1809 51.0556C39.9836 51.0556 51.2129 39.8263 51.2129 26.0236C51.2129 12.2209 39.9836 0.991563 26.1809 0.991563Z" fill="white"/>
<path d="M7.26338 52.7571C7.53986 52.9538 7.77381 53.1612 7.96522 53.3738C8.15662 53.5865 8.31081 53.8098 8.4331 54.0385L7.72596 54.5914C7.59303 54.3468 7.44948 54.1342 7.3006 53.9534C7.15173 53.7726 6.9869 53.6184 6.81145 53.4908C6.55623 53.31 6.32229 53.2197 6.1043 53.225C5.8863 53.225 5.71616 53.3207 5.58856 53.5015C5.46627 53.6769 5.42905 53.8524 5.48222 54.0278C5.53539 54.2033 5.65768 54.4266 5.85972 54.6924L6.21064 55.1656C6.50838 55.5697 6.67321 55.9632 6.71574 56.3354C6.75828 56.7075 6.66789 57.0531 6.44458 57.3668C6.30102 57.5689 6.12556 57.7284 5.92884 57.84C5.7268 57.9517 5.5088 58.0208 5.26954 58.0421C5.03028 58.0634 4.77507 58.0315 4.50922 57.9464C4.24338 57.8613 3.97222 57.7231 3.70105 57.5264C3.43521 57.3349 3.19063 57.1223 2.97264 56.8883C2.75464 56.6544 2.57387 56.3992 2.41968 56.1174L3.12151 55.5697C3.25975 55.8249 3.41394 56.0536 3.57876 56.2556C3.74359 56.4577 3.94031 56.6331 4.16362 56.7926C4.42947 56.984 4.67936 57.0797 4.90799 57.085C5.1313 57.085 5.31739 56.9893 5.46095 56.7926C5.5088 56.7235 5.54602 56.6491 5.56729 56.564C5.58856 56.4842 5.58856 56.3885 5.56729 56.2875C5.54602 56.1865 5.49817 56.0695 5.42905 55.9419C5.35993 55.8143 5.25891 55.6601 5.1313 55.4847L4.81229 55.0434C4.55176 54.6818 4.39225 54.3256 4.32313 53.98C4.25401 53.6344 4.34972 53.2835 4.60493 52.9272C4.89736 52.5125 5.28018 52.2839 5.74806 52.236C6.21595 52.1882 6.72638 52.3583 7.27402 52.7465L7.26338 52.7571Z" fill="white"/>
<path d="M8.99138 54.1128L9.98565 54.6285L8.39589 57.6964C8.15131 58.1696 8.06092 58.5577 8.12473 58.8714C8.18853 59.1851 8.41184 59.4403 8.80529 59.6424C9.18811 59.8444 9.52839 59.871 9.82614 59.7221C10.1239 59.5733 10.3685 59.318 10.5599 58.9405L12.2028 55.777L13.1971 56.2927L11.5914 59.3925C11.2245 60.105 10.7672 60.5409 10.2302 60.7004C9.69322 60.86 9.08177 60.7642 8.40652 60.4133C8.07688 60.2432 7.8004 60.0465 7.58772 59.8285C7.36973 59.6105 7.21554 59.3659 7.12515 59.0947C7.03476 58.8236 7.01349 58.5311 7.06135 58.2068C7.1092 57.8878 7.22617 57.5422 7.41758 57.1753L9.00202 54.1181L8.99138 54.1128Z" fill="white"/>
<path d="M15.377 56.9468C15.7013 57.0585 15.9831 57.1914 16.2224 57.3456C16.4617 57.4998 16.6743 57.6699 16.8551 57.856L16.3287 58.5844C16.132 58.3877 15.9406 58.2176 15.7439 58.09C15.5525 57.957 15.3504 57.856 15.1431 57.7816C14.8506 57.6806 14.6007 57.6593 14.3934 57.7231C14.186 57.7869 14.0478 57.9198 13.9733 58.1272C13.9042 58.3292 13.9149 58.5047 14.0159 58.6589C14.1169 58.8131 14.2977 58.9938 14.5635 59.1959L15.0314 59.5521C15.4302 59.8605 15.696 60.1848 15.8396 60.5357C15.9831 60.8866 15.9884 61.2376 15.8608 61.6044C15.7811 61.8384 15.6588 62.0404 15.494 62.2052C15.3292 62.3701 15.1431 62.4924 14.9144 62.5827C14.6911 62.6678 14.4359 62.7103 14.1594 62.6997C13.8776 62.6944 13.5799 62.6359 13.2662 62.5243C12.9525 62.4126 12.6654 62.2797 12.3889 62.1149C12.1124 61.95 11.8678 61.7533 11.6445 61.53L12.1709 60.8122C12.3783 61.0196 12.5856 61.195 12.7983 61.3439C13.011 61.4928 13.2502 61.6097 13.5108 61.7001C13.8245 61.8118 14.085 61.8331 14.303 61.7746C14.521 61.7161 14.6699 61.5725 14.7496 61.3386C14.7762 61.2588 14.7921 61.1738 14.7868 61.0887C14.7868 61.0036 14.7602 60.9185 14.7071 60.8228C14.6592 60.7325 14.5848 60.6314 14.4784 60.5304C14.3774 60.4241 14.2392 60.3071 14.0637 60.1742L13.6384 59.8392C13.2875 59.5627 13.0322 59.265 12.8727 58.9566C12.7132 58.6429 12.7079 58.2814 12.8515 57.8666C13.0216 57.3881 13.3247 57.0585 13.7607 56.883C14.1966 56.7076 14.7337 56.7288 15.3664 56.9521L15.377 56.9468Z" fill="white"/>
<path d="M21.3532 58.5898L21.1618 59.4671L19.5029 59.1055L18.4661 63.8695L17.3709 63.6302L18.4077 58.8663L16.7966 58.5154L16.988 57.6381L21.3479 58.5845L21.3532 58.5898Z" fill="white"/>
<path d="M22.5283 58.6641L23.6395 58.7652L25.2824 64.7148L24.1074 64.6031L23.7299 63.141L21.5872 62.9389L20.9438 64.3054L19.7847 64.199L22.5283 58.6588V58.6641ZM21.9274 62.1414L23.5225 62.2903L23.2992 61.413C23.2354 61.1471 23.1822 60.9025 23.1237 60.6686C23.0706 60.4347 23.0121 60.1848 22.9589 59.9083C22.8313 60.1476 22.725 60.3815 22.624 60.6101C22.5229 60.8387 22.4166 61.0727 22.2996 61.3226L21.9168 62.1414H21.9274Z" fill="white"/>
<path d="M27.053 58.8501L27.1487 64.6243L26.0321 64.6402L25.9364 58.866L27.053 58.8501Z" fill="white"/>
<path d="M27.776 58.914L28.7756 58.7917L31.349 61.7479C31.4925 61.9128 31.6254 62.0829 31.753 62.2477C31.8753 62.4125 31.9764 62.5508 32.0508 62.6571C31.9817 62.2424 31.9126 61.8224 31.8647 61.4023C31.8169 60.9823 31.7637 60.5623 31.7105 60.1422L31.5085 58.4621L32.5559 58.3345L33.2471 64.0661L32.2475 64.1884L29.7964 61.3917C29.6316 61.2003 29.4721 61.0036 29.3232 60.7962C29.1743 60.5888 29.0521 60.4134 28.9723 60.2858C29.0361 60.7324 29.1052 61.1684 29.1637 61.5884C29.2169 62.0085 29.2701 62.4391 29.3232 62.8751L29.5199 64.5234L28.4725 64.651L27.7813 58.9193L27.776 58.914Z" fill="white"/>
<path d="M34.5604 57.7922L35.6344 57.4891L39.3031 62.4551L38.1652 62.7741L37.288 61.5459L35.2144 62.1308L35.1027 63.6355L33.9808 63.9492L34.5551 57.7922H34.5604ZM35.2463 61.2535L36.7882 60.8175L36.2671 60.0785C36.1129 59.8552 35.9694 59.6425 35.8364 59.4458C35.7035 59.249 35.56 59.031 35.4111 58.7971C35.3792 59.0683 35.3632 59.3235 35.3526 59.568C35.342 59.8179 35.326 60.0732 35.3047 60.3496L35.2463 61.2535Z" fill="white"/>
<path d="M39.452 56.0694C39.9943 55.8301 40.4782 55.761 40.8982 55.862C41.3182 55.963 41.6266 56.2289 41.818 56.6649C41.8871 56.8297 41.9244 56.9839 41.9297 57.1327C41.9297 57.2816 41.9084 57.4199 41.8605 57.5528C41.8127 57.6857 41.7436 57.808 41.6532 57.9196C41.5628 58.0313 41.4618 58.1323 41.3554 58.2227C41.5203 58.1855 41.6851 58.1695 41.8499 58.1749C42.0147 58.1802 42.1743 58.2174 42.3284 58.2812C42.4773 58.345 42.6156 58.4354 42.7432 58.5577C42.8654 58.68 42.9718 58.8342 43.0569 59.0256C43.1526 59.2436 43.1951 59.4615 43.1791 59.6902C43.1632 59.9135 43.0994 60.1315 42.9824 60.3388C42.8654 60.5462 42.7059 60.7376 42.4933 60.9184C42.2806 61.0992 42.0307 61.2533 41.7383 61.381L40.0049 62.1466L37.6815 56.8616L39.4679 56.0747L39.452 56.0694ZM39.6328 58.5524L40.2017 58.3025C40.4569 58.1908 40.6483 58.0419 40.7759 57.8558C40.9035 57.6698 40.9088 57.4518 40.7972 57.2019C40.7015 56.9839 40.5526 56.8563 40.3505 56.8137C40.1485 56.7712 39.9092 56.8137 39.6381 56.9307L39.032 57.1965L39.6328 58.5524ZM40.6642 60.9024L41.2438 60.6472C41.3873 60.5834 41.5203 60.509 41.6372 60.4239C41.7542 60.3388 41.8446 60.2431 41.9137 60.1421C41.9828 60.0411 42.0201 59.9241 42.0254 59.7965C42.0307 59.6689 42.0041 59.536 41.9403 59.3871C41.8765 59.2489 41.7967 59.1425 41.6904 59.0734C41.5841 59.0043 41.4724 58.9564 41.3395 58.9405C41.2119 58.9245 41.0736 58.9299 40.9301 58.9618C40.7865 58.9937 40.6377 59.0415 40.4941 59.1053L39.973 59.3339L40.6642 60.9024Z" fill="white"/>
<path d="M41.6744 55.022L42.6368 54.4531L45.1251 58.6428L47.1668 57.4306L47.6241 58.2015L44.6253 59.9827L41.6744 55.022Z" fill="white"/>
<path d="M44.7476 53.1664L47.6613 50.944L48.193 51.6405L46.1672 53.1877L47.0499 54.3468L48.8842 52.9484L49.4106 53.6396L47.5762 55.038L48.5971 56.3778L50.6441 54.8147L51.1758 55.5165L48.2408 57.7549L44.737 53.1664H44.7476Z" fill="white"/>
<path d="M31.567 19.6432C31.4606 19.6432 31.3543 19.606 31.2639 19.5369L27.8345 16.8253C27.6218 16.6551 27.5899 16.3467 27.7547 16.1394C27.9249 15.9267 28.2333 15.8948 28.4406 16.0596L31.2054 18.2449L31.7105 14.757C31.7477 14.4911 31.9976 14.305 32.2635 14.3423C32.5293 14.3795 32.7154 14.6294 32.6782 14.8952L32.0455 19.2232C32.0189 19.3933 31.9019 19.5422 31.7424 19.606C31.6839 19.6273 31.6254 19.6432 31.5616 19.6432H31.567Z" fill="white"/>
<path d="M36.3362 40.6556C36.2671 40.6556 36.198 40.6396 36.1289 40.6077L32.1678 38.7521C32.0083 38.6777 31.9019 38.5235 31.8913 38.3534C31.8753 38.1779 31.9551 38.0131 32.0987 37.9121L35.6823 35.4131C35.9056 35.2589 36.2086 35.3174 36.3628 35.5354C36.517 35.7587 36.4638 36.0618 36.2405 36.216L33.3481 38.2311L36.5383 39.7251C36.7829 39.8368 36.8892 40.1292 36.7775 40.3738C36.6925 40.5546 36.517 40.6556 36.3309 40.6556H36.3362Z" fill="white"/>
<path d="M16.6424 34.4721C16.3819 34.4721 16.1639 34.2647 16.1532 34.0042L15.999 30.4844L13.0322 32.3826C12.8036 32.5261 12.5005 32.4623 12.357 32.2337C12.2081 32.0051 12.2772 31.702 12.5058 31.5584L16.1904 29.203C16.3393 29.1127 16.5254 29.102 16.6796 29.1818C16.8338 29.2615 16.9348 29.4157 16.9454 29.5912L17.1422 33.9617C17.1528 34.2328 16.9454 34.4615 16.6743 34.4721H16.653H16.6424Z" fill="white"/>
<path d="M37.1763 38.6405H33.2152C32.944 38.6405 32.726 38.4225 32.726 38.1513C32.726 37.8802 32.944 37.6622 33.2152 37.6622H37.1763C37.8462 37.6622 38.4577 37.3219 38.8139 36.753C39.1701 36.1841 39.202 35.4876 38.9096 34.8814L31.971 20.7225C31.8541 20.4779 31.9551 20.1855 32.1944 20.0685C32.4389 19.9515 32.7314 20.0526 32.8483 20.2918L39.7869 34.4508C40.2335 35.36 40.1804 36.4127 39.6433 37.2687C39.1063 38.1247 38.1865 38.6352 37.1763 38.6352V38.6405Z" fill="white"/>
<path d="M30.3866 38.6405H16.1533C15.143 38.6405 14.2179 38.1301 13.6862 37.2688C13.1545 36.4074 13.096 35.36 13.5426 34.4508L15.6109 30.2292C15.7279 29.9846 16.0256 29.8836 16.2649 30.0059C16.5095 30.1228 16.6105 30.4206 16.4882 30.6598L14.4199 34.8815C14.1275 35.4823 14.1594 36.1841 14.5156 36.753C14.8719 37.3219 15.4833 37.6622 16.1533 37.6622H30.3866C30.6578 37.6622 30.8758 37.8802 30.8758 38.1514C30.8758 38.4225 30.6578 38.6405 30.3866 38.6405Z" fill="white"/>
<path d="M17.0624 28.8734C16.988 28.8734 16.9189 28.8575 16.8498 28.8203C16.6052 28.7033 16.5042 28.4055 16.6265 28.1663L24.0542 13.0131C24.5487 12.0082 25.5482 11.3861 26.6648 11.3861C27.7813 11.3861 28.7862 12.0082 29.2754 13.0131L31.8488 18.2609C31.9657 18.5055 31.8647 18.7979 31.6255 18.9149C31.3809 19.0318 31.0885 18.9308 30.9715 18.6915L28.3981 13.4438C28.0685 12.7685 27.4198 12.3644 26.6648 12.3644C25.9098 12.3644 25.2664 12.7685 24.9315 13.4438L17.5038 28.597C17.4187 28.7724 17.2432 28.8734 17.0624 28.8734Z" fill="white"/>
</svg>
