<svg width="81" height="52" viewBox="0 0 81 52" fill="none" xmlns="http://www.w3.org/2000/svg">
<rect x="2" y="2" width="77" height="48" rx="24" stroke="white" stroke-width="3"/>
<path fill-rule="evenodd" clip-rule="evenodd" d="M43.4042 24.4965C45.7998 24.4965 46.9769 21.5801 45.2525 19.9172L44.4156 19.1102C43.8192 18.5351 43.802 17.5855 44.377 16.9892C44.952 16.3929 45.9016 16.3756 46.498 16.9506L54.4255 24.5951C55.0222 25.1704 55.0391 26.1205 54.4634 26.7167L46.498 34.9667C45.9226 35.5626 44.973 35.5793 44.377 35.0039C43.781 34.4285 43.7644 33.4789 44.3398 32.8829L45.1582 32.0352C46.7999 30.3349 45.595 27.4965 43.2314 27.4965H29.5C28.6716 27.4965 28 26.825 28 25.9965C28 25.1681 28.6716 24.4965 29.5 24.4965H43.4042Z" fill="white"/>
</svg>
