<svg width="17" height="16" viewBox="0 0 17 16" fill="none" xmlns="http://www.w3.org/2000/svg">
<path fill-rule="evenodd" clip-rule="evenodd" d="M5.75 8.75C6.85457 8.75 7.75 9.64543 7.75 10.75V15.25C7.75 15.6642 8.08579 16 8.5 16C8.91421 16 9.25 15.6642 9.25 15.25V10.75C9.25 9.64543 10.1454 8.75 11.25 8.75H15.75C16.1642 8.75 16.5 8.41421 16.5 8C16.5 7.58579 16.1642 7.25 15.75 7.25H11.25C10.1454 7.25 9.25 6.35457 9.25 5.25V0.75C9.25 0.335786 8.91421 0 8.5 0C8.08579 0 7.75 0.335786 7.75 0.75V5.25C7.75 6.35457 6.85457 7.25 5.75 7.25H1.25C0.835786 7.25 0.5 7.58579 0.5 8C0.5 8.41421 0.835786 8.75 1.25 8.75H5.75Z" fill="white"/>
</svg>
