<svg width="41" height="40" viewBox="0 0 41 40" fill="none" xmlns="http://www.w3.org/2000/svg">
<path d="M10.6777 11.7357C10.5899 11.9699 10.4115 12.1685 10.197 12.2971C10.1716 12.3123 10.1452 12.3267 10.1178 12.3404C9.96848 12.4151 9.80424 12.4524 9.62507 12.4524C9.59521 12.4524 9.58028 12.4524 9.58028 12.4524C9.58028 12.4524 9.56535 12.4524 9.53549 12.4524L4.31589 12.249C3.34534 12.2112 2.54227 11.4816 2.41187 10.5191L1.71054 5.34264C1.70159 5.27655 1.65195 5.21787 1.65195 5.15117C1.65195 5.12131 1.65195 5.09144 1.65195 5.06158C1.65195 4.79282 1.749 4.55393 1.9431 4.3449C2.12132 4.15297 2.33101 4.02398 2.57217 3.95792C2.61524 3.94613 2.65992 3.94176 2.70458 3.94176C2.71951 3.94176 2.74191 3.94176 2.77177 3.94176C3.07039 3.94176 3.32421 4.03135 3.53325 4.21052C3.74228 4.38969 3.86173 4.61366 3.89159 4.88241L3.90983 5.01126C4.31476 7.87109 6.69982 10.0365 9.58535 10.1642L9.66986 10.168C9.96848 10.168 10.2223 10.2799 10.4313 10.5039C10.6404 10.7279 10.7449 10.9892 10.7449 11.2878C10.7449 11.2878 10.7449 11.2953 10.7449 11.3102C10.7449 11.3251 10.7449 11.3326 10.7449 11.3326C10.7449 11.4819 10.7225 11.6163 10.6777 11.7357ZM20.6441 39.9552C17.8968 39.9552 15.3138 39.4326 12.8949 38.3875C10.4463 37.3423 8.31861 35.9164 6.51197 34.1097C4.70532 32.3031 3.27942 30.1904 2.23425 27.7715C1.18909 25.3229 0.666504 22.7249 0.666504 19.9776C0.666504 19.5894 0.800882 19.2609 1.06964 18.9922C1.3384 18.7234 1.66688 18.589 2.05508 18.589C2.44329 18.589 2.77177 18.7234 3.04052 18.9922C3.30928 19.2609 3.44366 19.5894 3.44366 19.9776C3.44366 22.3665 3.89159 24.6062 4.78744 26.6965C5.71316 28.7869 6.95243 30.6084 8.50525 32.1612C10.0581 33.7141 11.8796 34.9384 13.97 35.8343C16.0603 36.76 18.3 37.2228 20.6889 37.2228C23.048 37.2228 25.2727 36.76 27.363 35.8343C29.4534 34.9384 31.2824 33.7141 32.8502 32.1612C34.4179 30.6084 35.6497 28.7869 36.5456 26.6965C37.4414 24.6062 37.8894 22.3665 37.8894 19.9776C37.8894 17.5886 37.4414 15.349 36.5456 13.2587C35.6497 11.1683 34.4179 9.34676 32.8502 7.79395C31.2824 6.24113 29.4534 5.01679 27.363 4.12093C25.2727 3.19521 23.048 2.73235 20.6889 2.73235C19.1958 2.73235 17.7624 2.91153 16.3888 3.26987C15.0151 3.62821 13.7162 4.14333 12.4918 4.81522C11.2675 5.48711 10.1477 6.28592 9.13235 7.21164C8.13264 8.12313 7.24874 9.13596 6.48065 10.2501C6.45673 10.2848 6.42978 10.3173 6.39999 10.3471C6.25068 10.4964 6.08644 10.6159 5.90727 10.7055C5.72809 10.7951 5.53399 10.8399 5.32496 10.8399C4.93675 10.8399 4.60827 10.7055 4.33952 10.4367C4.07076 10.168 3.93638 9.83949 3.93638 9.45128C3.93638 9.33183 3.95131 9.21985 3.98117 9.11533C4.03669 8.92102 4.12836 8.73931 4.24537 8.57454C5.12911 7.3302 6.13101 6.204 7.25105 5.19596C8.44553 4.09107 9.75198 3.15789 11.1704 2.39641C12.5889 1.63493 14.0894 1.04516 15.6721 0.62709C17.2846 0.209023 18.9569 -7.62939e-06 20.6889 -7.62939e-06C23.4362 -7.62939e-06 26.0192 0.522575 28.4381 1.56774C30.8867 2.61291 33.0144 4.03881 34.821 5.84546C36.6277 7.6521 38.0536 9.76483 39.0988 12.1836C40.1439 14.6323 40.6665 17.2303 40.6665 19.9776C40.6665 22.7249 40.1439 25.3229 39.0988 27.7715C38.0536 30.1904 36.6277 32.3031 34.821 34.1097C33.0144 35.9164 30.8867 37.3423 28.4381 38.3875C26.0192 39.4326 23.4362 39.9552 20.6889 39.9552C20.6889 39.9552 20.6814 39.9552 20.6665 39.9552C20.6516 39.9552 20.6441 39.9552 20.6441 39.9552ZM21.4056 28.533C21.4056 28.9041 21.1048 29.2049 20.7337 29.2049C20.3626 29.2049 20.0618 28.9041 20.0618 28.533V28.1487C20.0618 27.6046 19.646 27.158 19.1131 27.0483C17.9957 26.8182 17.0727 26.3799 16.344 25.7335C15.7218 25.1815 15.2615 24.4778 14.9631 23.6224C14.7031 22.8773 15.2389 22.1334 16.0103 21.9673C16.8505 21.7863 17.6184 22.3769 18.0246 23.1343C18.13 23.3308 18.2491 23.5029 18.3821 23.6506C19.0545 24.3977 20.0618 23.5866 20.0618 22.5815V22.2262C20.0618 21.3711 19.4936 20.6306 18.6932 20.3296C18.6791 20.3242 18.6649 20.3189 18.6508 20.3135C18.2178 20.1493 17.7923 19.9627 17.3742 19.7536C17.3916 19.7652 17.3785 19.7897 17.3594 19.7813C16.7392 19.5089 16.2216 19.0891 15.8065 18.5218C15.3586 17.9097 15.1346 17.2154 15.1346 16.439C15.1346 15.2743 15.5974 14.3262 16.5232 13.5946C17.2563 13.0152 18.1486 12.6559 19.2001 12.5166C19.6762 12.4535 20.0618 12.0683 20.0618 11.588V11.3774C20.0618 11.0063 20.3626 10.7055 20.7337 10.7055C21.1048 10.7055 21.4056 11.0063 21.4056 11.3774V11.6757C21.4056 12.1692 21.7786 12.5756 22.2589 12.6888C23.1927 12.9087 23.9833 13.3078 24.6307 13.8858C25.0997 14.3045 25.4653 14.7796 25.7276 15.3111C26.0793 16.0237 25.5382 16.7879 24.7594 16.9461L24.6912 16.96C23.9191 17.1168 23.1825 16.5599 22.6374 15.991C22.135 15.4668 21.4056 15.9674 21.4056 16.6935V17.2234C21.4056 17.8737 21.8359 18.441 22.4507 18.6527C22.5825 18.698 22.712 18.744 22.839 18.7906C23.2869 18.9548 23.7199 19.1415 24.1379 19.3505L24.0484 19.3057C24.7949 19.6043 25.4071 20.097 25.8849 20.7839C26.3627 21.4707 26.6016 22.2322 26.6016 23.0683C26.6016 23.0982 26.6016 23.1131 26.6016 23.1131C26.6016 24.2777 26.1238 25.2333 25.1682 25.9798C24.4234 26.5617 23.4972 26.935 22.3895 27.0996C21.8436 27.1807 21.4056 27.6258 21.4056 28.1777V28.533ZM20.0618 16.32C20.0618 15.6532 19.4811 15.0734 18.866 15.3309C18.7641 15.3736 18.67 15.422 18.5836 15.4759C18.2253 15.6999 18.0461 16.0209 18.0461 16.439C18.0461 16.7674 18.2178 17.0437 18.5612 17.2676C18.573 17.2753 18.5849 17.2829 18.597 17.2906C19.2654 17.7124 20.0618 17.1104 20.0618 16.32ZM23.0629 22.0605C22.3549 21.4886 21.4056 22.1579 21.4056 23.068V23.1634C21.4056 23.9422 22.0876 24.6317 22.7971 24.3106C22.8929 24.2672 22.9815 24.2189 23.0629 24.1657C23.4511 23.9119 23.6452 23.576 23.6452 23.1579C23.6452 22.7398 23.4511 22.374 23.0629 22.0605Z" fill="#A0E2B7"/>
</svg>
