<svg width="32" height="40" viewBox="0 0 32 40" fill="none" xmlns="http://www.w3.org/2000/svg">
<path d="M22.9463 0C21.6976 0 20.5268 0.234375 19.4341 0.703125C18.3415 1.19792 17.3854 1.85547 16.5659 2.67578C15.7463 3.49609 15.1024 4.45312 14.6341 5.54688C14.1659 6.64062 13.9317 7.8125 13.9317 9.0625V16.3705C13.9317 17.9435 12.6565 19.2188 11.0834 19.2188C8.54148 19.2188 7.2727 16.1416 9.07594 14.35L9.4439 13.9844C9.54797 13.8542 9.63252 13.7174 9.69756 13.5742C9.7626 13.431 9.79512 13.2682 9.79512 13.0859C9.79512 12.7474 9.67805 12.4609 9.4439 12.2266C9.20976 11.9922 8.92358 11.875 8.58537 11.875C8.40325 11.875 8.24065 11.9076 8.09756 11.9727C7.95447 12.0378 7.81789 12.1224 7.6878 12.2266L0.35122 19.6094C0.221138 19.7135 0.130081 19.8372 0.0780488 19.9805C0.0260163 20.1237 0 20.2865 0 20.4688C0 20.625 0.0260163 20.7812 0.0780488 20.9375C0.130081 21.0938 0.221138 21.224 0.35122 21.3281L7.38518 28.4064C7.58667 28.6092 7.79836 28.8074 8.05854 28.9258C8.20163 28.9909 8.36423 29.0234 8.54634 29.0234C8.88455 29.0234 9.17073 28.8997 9.40488 28.6523C9.63902 28.4049 9.7561 28.112 9.7561 27.7734C9.7561 27.6172 9.73008 27.4674 9.67805 27.3242C9.62602 27.181 9.54797 27.0573 9.4439 26.9531L9.05029 26.5591C7.25065 24.7577 8.52649 21.6797 11.0728 21.6797C12.6517 21.6797 13.9317 22.9597 13.9317 24.5386V30.6641C13.9317 30.7161 13.9317 30.7617 13.9317 30.8008C13.9317 30.8398 13.9317 30.8854 13.9317 30.9375C13.9317 32.1875 14.1659 33.3594 14.6341 34.4531C15.1024 35.5729 15.7463 36.543 16.5659 37.3633C17.3854 38.1836 18.3415 38.8281 19.4341 39.2969C20.5268 39.7656 21.7106 40 22.9854 40C24.2341 40 25.4049 39.7656 26.4976 39.2969C27.5902 38.8281 28.5463 38.1836 29.3659 37.3633C30.1854 36.543 30.8293 35.5729 31.2976 34.4531C31.7659 33.3594 32 32.1875 32 30.9375C32 30.8854 32 30.8398 32 30.8008C32 30.7617 32 30.7161 32 30.6641V9.02344C32 7.77344 31.7659 6.60156 31.2976 5.50781C30.8293 4.41406 30.1854 3.45703 29.3659 2.63672C28.5463 1.81641 27.5902 1.17188 26.4976 0.703125C25.3789 0.234375 24.1951 0 22.9463 0ZM29.6976 30.7031C29.6976 32.5521 29.0407 34.1406 27.7268 35.4688C26.413 36.7969 24.8195 37.4609 22.9463 37.4609C21.0992 37.4609 19.5122 36.7969 18.1854 35.4688C16.8585 34.1406 16.1951 32.5521 16.1951 30.7031V27.6797C16.1951 24.366 18.8814 21.6797 22.1951 21.6797H26.3024C26.6406 21.6797 26.9333 21.556 27.1805 21.3086C27.4276 21.0612 27.5512 20.7682 27.5512 20.4297C27.5512 20.0911 27.4276 19.8047 27.1805 19.5703C26.9333 19.3359 26.6406 19.2188 26.3024 19.2188H22.2341C18.9204 19.2188 16.2341 16.5325 16.2341 13.2188V9.02344C16.2341 7.17448 16.8911 5.59245 18.2049 4.27734C19.5187 2.96224 21.1122 2.30469 22.9854 2.30469C24.8325 2.30469 26.413 2.96224 27.7268 4.27734C29.0407 5.59245 29.6976 7.17448 29.6976 9.02344V30.7031Z" fill="#A0E2B7"/>
</svg>
