<svg width="39" height="38" viewBox="0 0 39 38" fill="none" xmlns="http://www.w3.org/2000/svg">
<path d="M13.0029 37.3949C12.9925 37.4053 12.9754 37.4044 12.9664 37.3928C12.8753 37.2758 12.795 37.148 12.7256 37.0092C12.652 36.8619 12.6151 36.7023 12.6151 36.5304C12.6151 36.5058 12.6151 36.4935 12.6151 36.4935C12.6151 36.4935 12.6151 36.4813 12.6151 36.4567V36.4935C12.6151 36.4935 12.6213 36.1129 12.6336 35.3517C12.6458 34.5905 12.6765 33.7557 12.7256 32.8471C12.7256 32.4051 12.7318 31.9877 12.7441 31.5948C12.7638 30.9633 12.3803 30.3907 11.8192 30.1002C11.5715 29.9721 11.3334 29.8318 11.105 29.6796C10.5894 29.3358 10.1228 28.9429 9.70538 28.5009C9.2634 28.0835 8.87052 27.6169 8.52675 27.1013C8.18637 26.5907 7.91821 26.044 7.72227 25.4613C7.71842 25.4498 7.71199 25.4394 7.70344 25.4308C7.68823 25.4156 7.6674 25.4074 7.6459 25.4081L5.39599 25.4807L1.768 25.5539C1.75572 25.5542 1.74344 25.5543 1.73117 25.5543C1.71889 25.5543 1.71275 25.5543 1.71275 25.5543C1.71275 25.5543 1.71275 25.5543 1.71275 25.5543C1.54087 25.5543 1.38126 25.5236 1.23393 25.4622C1.0866 25.4009 0.951548 25.3088 0.828773 25.186C0.705999 25.0632 0.613918 24.9282 0.55253 24.7808C0.491143 24.6335 0.460449 24.4739 0.460449 24.302C0.460449 24.302 0.460449 24.2959 0.460449 24.2836C0.460449 24.2713 0.460594 24.259 0.460897 24.2467C0.511724 22.1915 0.87376 20.3376 1.54701 18.6851C2.22227 17.0276 3.17377 15.6587 4.40152 14.5783C5.26094 13.8416 6.237 13.2646 7.32969 12.8471C8.42239 12.4297 9.58261 12.221 10.8104 12.221C10.9331 12.221 11.0559 12.2271 11.1787 12.2394C11.3015 12.2517 11.4365 12.2578 11.5838 12.2578C11.5683 12.2578 11.5592 12.2405 11.5681 12.2278C12.6717 10.666 14.2116 9.07992 16.1879 7.46961C18.1523 5.84898 20.3131 4.4248 22.6704 3.19705C25.0277 1.9693 27.4463 1.06077 29.9264 0.471451C32.4064 -0.11787 34.7146 -0.154701 36.8509 0.360954C36.9736 0.385506 37.0841 0.428478 37.1824 0.489864C37.2806 0.551254 37.3665 0.618778 37.4402 0.692444L37.5139 0.766109C37.5875 0.839775 37.655 0.925716 37.7164 1.02394C37.7778 1.12215 37.8208 1.23265 37.8453 1.35543C38.361 3.49171 38.3242 5.79987 37.7348 8.27992C37.1455 10.76 36.237 13.1786 35.0093 15.5359C33.7815 17.8932 32.3573 20.054 30.7367 22.0184C29.2187 23.8814 27.7222 25.3566 26.2473 26.4441C26.0615 26.5811 25.9485 26.7967 25.9485 27.0276C25.9485 27.1504 25.9485 27.2854 25.9485 27.4328C25.9485 28.636 25.7398 29.7839 25.3223 30.8766C24.9071 31.9634 24.3341 32.9349 23.6031 33.7909C23.5984 33.7964 23.6023 33.8048 23.6095 33.8048C23.6167 33.8048 23.6205 33.8133 23.6157 33.8187C22.5372 35.0397 21.1662 35.9866 19.5028 36.6593C17.8381 37.3325 15.9904 37.6945 13.9596 37.7454C13.9473 37.7457 13.935 37.7458 13.9227 37.7458C13.9104 37.7458 13.9043 37.7458 13.9043 37.7458C13.7324 37.7458 13.5728 37.7152 13.4255 37.6538C13.2851 37.5953 13.1559 37.509 13.0378 37.3948C13.0281 37.3853 13.0125 37.3853 13.0029 37.3949ZM35.4298 7.06955C35.8892 4.50447 33.7391 2.35468 31.1728 2.80747C30.5744 2.91306 29.9624 3.0552 29.3371 3.23388C27.1271 3.87231 24.9786 4.78084 22.8914 5.95948C20.8042 7.13812 18.9012 8.46408 17.1824 9.93738C15.439 11.4352 14.1253 12.884 13.2413 14.2836C13.1185 14.4555 12.9651 14.5967 12.7809 14.7072C12.5967 14.8177 12.3942 14.8729 12.1732 14.8729C12.1486 14.8729 12.124 14.8729 12.0995 14.8729C12.0504 14.8729 12.0015 14.8694 11.9529 14.8626C11.8021 14.8415 11.6423 14.8204 11.4733 14.7993C11.2769 14.7747 11.0682 14.7624 10.8472 14.7624C9.93866 14.7624 9.07309 14.922 8.2505 15.2412C7.42791 15.5605 6.6974 15.9902 6.05898 16.5304C5.19955 17.3652 4.51201 18.3352 3.99636 19.4401C3.48071 20.5451 3.17377 21.7238 3.07555 22.9761C3.07555 22.9963 3.09221 23.0126 3.11243 23.0122C4.35064 22.9877 5.49857 22.9573 6.55621 22.9208C7.45375 22.8899 8.07821 22.8632 8.42962 22.841C8.54258 22.8338 8.65297 22.7919 8.76616 22.7919C8.82755 22.7919 8.88279 22.7919 8.9319 22.7919C9.00557 22.7919 9.06696 22.7919 9.11607 22.7919C9.16178 22.7919 9.21813 22.8025 9.28511 22.8238C9.2879 22.8247 9.28726 22.8287 9.28434 22.8287C9.2813 22.8287 9.28076 22.8332 9.2837 22.8339C9.56879 22.9092 9.79529 23.0548 9.96321 23.2707C10.1351 23.4917 10.221 23.7495 10.221 24.0442C10.221 24.0442 10.221 24.0503 10.221 24.0626C10.221 24.0749 10.221 24.081 10.221 24.081C10.221 24.1792 10.2149 24.2775 10.2026 24.3757C10.1909 24.4694 10.1624 24.5631 10.1172 24.6569C10.1155 24.6602 10.1105 24.6591 10.1105 24.6553C10.1105 24.6513 10.1162 24.6504 10.1175 24.6542C10.2638 25.0878 10.4518 25.4738 10.6814 25.8121C10.911 26.1505 11.1703 26.4531 11.4594 26.7201C11.4683 26.7283 11.4733 26.7398 11.4733 26.7519C11.4733 26.7634 11.4779 26.7743 11.486 26.7824C11.7771 27.072 12.0921 27.3317 12.431 27.5617C12.7704 27.792 13.1337 27.9804 13.521 28.1269C13.5309 28.1307 13.5414 28.1326 13.552 28.1326C13.5657 28.1326 13.5791 28.1293 13.5915 28.1235C13.6835 28.0797 13.7755 28.052 13.8674 28.0405C13.9657 28.0282 14.0639 28.0221 14.1621 28.0221C14.4568 28.0221 14.7207 28.108 14.954 28.2799C15.177 28.4442 15.3271 28.6534 15.4042 28.9075C15.4113 28.9309 15.4144 28.9553 15.4144 28.9797C15.4144 29.0288 15.4205 29.078 15.4328 29.1271C15.4451 29.1762 15.4512 29.2376 15.4512 29.3112C15.4512 29.3603 15.4451 29.4156 15.4328 29.477C15.4205 29.5384 15.4144 29.5936 15.4144 29.6427C15.3899 29.9374 15.3592 30.6188 15.3223 31.6869C15.258 33.5531 16.8581 35.1307 18.5654 34.3745C18.6451 34.3392 18.7243 34.3028 18.803 34.2652C19.908 33.7373 20.8779 33.0436 21.7127 32.1842C22.253 31.5457 22.6765 30.8152 22.9835 29.9926C23.2904 29.17 23.4439 28.3045 23.4439 27.3959C23.4439 27.1749 23.4377 26.9662 23.4255 26.7698C23.4132 26.5734 23.3948 26.3769 23.3702 26.1805V26.2173C23.3702 26.1927 23.3702 26.1682 23.3702 26.1436C23.3702 26.1191 23.3702 26.0945 23.3702 26.07C23.3702 25.849 23.4193 25.6464 23.5175 25.4622C23.6158 25.2781 23.7508 25.1246 23.9227 25.0018C25.3223 24.1179 26.7711 22.8042 28.2689 21.0608C29.7668 19.3419 31.0989 17.4328 32.2652 15.3333C33.4316 13.2339 34.3463 11.0792 35.0093 8.86924C35.1846 8.25545 35.3248 7.65555 35.4298 7.06955ZM7.84535 23.3996C7.86095 23.384 7.87392 23.4079 7.85832 23.4235C7.85342 23.4284 7.8491 23.4327 7.84535 23.4365C7.83307 23.4487 7.82693 23.4672 7.82693 23.4917V23.4549C7.82693 23.4303 7.83307 23.4119 7.84535 23.3996ZM1.80483 37.2118C1.52892 37.0864 1.30992 36.8593 1.17161 36.5896C1.1678 36.5822 1.16402 36.5747 1.16027 36.5672C1.0866 36.4199 1.04977 36.2603 1.04977 36.0884C1.04977 35.892 1.07432 35.364 1.12343 34.5046C1.17254 33.6206 1.33215 32.6568 1.60225 31.6133C1.87236 30.5697 2.30207 29.5445 2.89139 28.5377C3.4496 27.6074 4.22812 26.9084 5.22696 26.4407C5.33765 26.3888 5.45959 26.3663 5.58015 26.3462C5.65382 26.3339 5.72748 26.3278 5.80115 26.3278C6.14492 26.3278 6.43958 26.4506 6.68513 26.6961C6.93068 26.9417 7.05345 27.2363 7.05345 27.5801C7.05345 27.8257 6.99206 28.0466 6.86929 28.2431C6.84547 28.2812 6.82026 28.3179 6.79367 28.3533C6.57388 28.6453 6.2094 28.774 5.90262 28.9727C5.22244 29.4134 4.72207 30.1647 4.40152 31.2265C4.38397 31.2846 4.36672 31.3425 4.34977 31.4C3.85688 33.0737 5.31128 34.482 6.96137 33.9153C8.17684 33.4978 9.03012 32.798 9.52122 31.8158C9.644 31.5948 9.80974 31.4107 10.0185 31.2633C10.2272 31.116 10.4543 31.0424 10.6999 31.0424C11.0436 31.0424 11.3444 31.1651 11.6023 31.4107C11.8601 31.6562 11.989 31.9632 11.989 32.3315C11.989 32.4297 11.9706 32.5341 11.9337 32.6446C11.8969 32.7551 11.8539 32.8594 11.8048 32.9576C11.2646 34.0626 10.4789 34.9098 9.44756 35.4991C8.41625 36.0884 7.38494 36.5181 6.35363 36.7882C5.32233 37.0583 4.41379 37.2179 3.62804 37.267C2.84228 37.2916 2.41257 37.3039 2.3389 37.3039C2.31435 37.3039 2.29593 37.3039 2.28365 37.3039C2.27138 37.3039 2.26524 37.3039 2.26524 37.3039C2.26524 37.3039 2.26524 37.3039 2.26524 37.3039C2.09335 37.3039 1.93988 37.2732 1.80483 37.2118ZM29.1529 13.105C28.9073 12.7366 28.5943 12.442 28.2137 12.221C27.8331 12 27.4095 11.8895 26.943 11.8895C26.8202 11.8895 26.6974 11.8956 26.5746 11.9079C26.5697 11.9084 26.5648 11.9089 26.56 11.9094C26.4151 11.9246 26.2852 11.7923 26.3168 11.6501C26.3414 11.5396 26.3536 11.4352 26.3536 11.337C26.3536 10.8705 26.2431 10.4408 26.0221 10.0479C25.8011 9.655 25.5065 9.33578 25.1382 9.09023C24.819 8.8938 24.3463 8.77716 23.7201 8.74033C23.094 8.70349 22.4371 9.06568 21.7496 9.82688C21.0375 10.6126 20.6385 11.6255 20.5525 12.8656C20.5336 13.1391 20.5269 13.4212 20.5324 13.712C20.5731 15.8502 22.3136 17.619 24.4514 17.6717C24.7504 17.6791 25.0407 17.6731 25.3223 17.6538C26.5746 17.5678 27.5937 17.1811 28.3794 16.4935C29.1406 15.7815 29.5212 15.143 29.5212 14.5783C29.5212 14.0135 29.3984 13.5224 29.1529 13.105Z" fill="#A0E2B7"/>
</svg>
